<svg width="174" height="104" viewBox="0 0 174 104" fill="none" xmlns="http://www.w3.org/2000/svg">
<mask id="mask0_2022_23" style="mask-type:alpha" maskUnits="userSpaceOnUse" x="0" y="0" width="174" height="104">
<rect width="174" height="104" fill="#D9D9D9"/>
</mask>
<g mask="url(#mask0_2022_23)">
<g clip-path="url(#clip0_2022_23)">
<path d="M19.8385 60.5238L19.528 62.0501H16.5442L15.6809 67.1501H13.5302L14.704 60.5238H19.8385ZM24.7836 64.8683L24.5867 62.5034L23.4129 64.8683H24.7836ZM26.124 60.5238L27.0707 67.1274H24.9199L24.8669 66.2661H22.7162L22.2694 67.1274H20.1489L23.9203 60.5238H26.124ZM32.7353 63.531H33.6289C34.1287 63.531 34.6891 63.2212 34.6891 62.6394C34.6891 62.1407 34.1287 62.0576 33.6592 62.0576H33.0458L32.7353 63.531ZM31.9855 67.1198H29.8045L31.2282 60.5163H34.4089C36.0295 60.5163 36.8095 61.1585 36.8095 62.1861C36.8095 63.8861 35.5524 65.027 33.5153 65.027H32.4323L31.9855 67.1198ZM42.3454 64.8683L42.1485 62.5034L40.9747 64.8683H42.3454ZM43.6858 60.5238L44.6324 67.1274H42.4817L42.4287 66.2661H40.278L39.8312 67.1274H37.7107L41.4821 60.5238H43.6858ZM50.4712 62.8358H52.5083L53.0082 60.5238H55.1589L53.7655 67.1198H51.5844L52.1751 64.3621H50.138L49.5473 67.1198H47.3739L48.7976 60.5238H50.9483L50.4712 62.8358ZM60.7705 67.1198H58.6273L59.6875 62.0501H57.7564L58.0896 60.5238H64.1253L63.8148 62.0501H61.861L60.7705 67.1198ZM73.425 60.5238L72.0239 67.1198H69.9338L70.3806 65.0345L70.8577 63.3345L67.6695 67.1198H65.6323L67.0561 60.5238H69.1235L68.6767 62.6092L68.1996 64.3092L71.4105 60.5238H73.425ZM80.0135 62.0501H79.1198C78.62 62.0501 78.0899 62.3296 78.0899 62.9114C78.0899 63.191 78.3398 63.3572 79.0138 63.3572H79.7711L80.0135 62.0501ZM78.8093 64.8078L77.3023 67.0896H74.985L76.9085 64.4981C76.4314 64.279 76.0452 63.6065 76.0452 62.9416C76.0452 62.103 76.6586 60.4936 79.3698 60.4936H82.5504L81.1267 67.067H78.9457L79.4455 64.7852H78.8018V64.8078H78.8093ZM92.5543 62.6621L94.8944 60.5238H97.4389L94.5082 63.0021L96.2954 67.1198H93.6979L92.6604 64.4754L92.0469 65.0345L91.6001 67.1198H89.4267L90.8504 60.5238H93.0011L92.5543 62.6621ZM103.164 64.8683L102.967 62.5034L101.793 64.8683H103.164ZM104.505 60.5238L105.451 67.1274H103.3L103.247 66.2661H101.097L100.65 67.1274H98.5294L102.301 60.5238H104.505ZM111.146 60.5238L110.783 62.2238C110.752 62.307 110.752 62.3901 110.752 62.443C110.752 62.8056 111.002 62.9718 111.449 62.9718C111.865 62.9718 112.259 62.919 112.456 62.8585L112.956 60.5163H115.137L113.713 67.1198H111.532L112.093 64.4452C111.699 64.5283 111.396 64.5812 110.252 64.5812C109.389 64.5812 108.465 64.1052 108.465 63.0247C108.465 62.8887 108.495 62.715 108.518 62.5487L108.965 60.5163H111.146V60.5238ZM123.77 60.5238L123.437 62.0501H120.226L120.029 63.0021H122.733L122.399 64.5358H119.696L119.469 65.5936H122.824L122.483 67.1198H116.985L118.378 60.5238H123.77ZM130.669 63.055C130.669 63.0021 130.7 62.919 130.7 62.8585C130.7 62.2994 130.366 61.967 129.753 61.967C128.359 61.967 128.019 64.1127 128.019 64.6718C128.019 65.2536 128.269 65.6767 129.026 65.6767C129.723 65.6767 130.139 65.2007 130.366 64.5661H132.464C131.904 66.2661 130.457 67.2936 128.723 67.2936C126.883 67.2936 125.845 66.3492 125.845 64.755C125.845 62.1634 127.913 60.3501 129.98 60.3501C131.82 60.3501 132.744 61.1887 132.744 62.6318C132.744 62.7678 132.744 62.9114 132.714 63.0474H130.669V63.055ZM138.568 67.1198H136.394L137.477 62.0501H135.523L135.857 60.5238H141.923L141.582 62.0501H139.658L138.568 67.1198ZM146.444 63.1683H147.337C147.754 63.1683 148.231 62.9492 148.231 62.443C148.231 62.1105 147.898 62.0803 147.451 62.0803H146.694L146.444 63.1683ZM145.914 65.5936H146.86C147.39 65.5936 147.951 65.4576 147.951 64.8154C147.951 64.4225 147.557 64.3696 146.86 64.3696H146.164L145.914 65.5936ZM144.853 60.5238H148.011C149.352 60.5238 150.359 60.8034 150.359 61.8083C150.359 62.647 149.715 63.3118 149.155 63.6216C149.715 63.7576 149.965 64.2034 149.965 64.7625C149.965 66.5154 148.405 67.1274 146.641 67.1274H143.43L144.853 60.5238ZM156.637 64.8683L156.44 62.5034L155.266 64.8683H156.637ZM157.977 60.5238L158.924 67.1274H156.773L156.72 66.2661H154.57L154.123 67.1274H152.002L155.774 60.5238H157.977ZM167.641 40.1012C166.58 40.1012 165.74 39.2398 165.74 38.2047C165.74 37.147 166.603 36.3083 167.641 36.3083C168.701 36.3083 169.541 37.1696 169.541 38.2047C169.564 39.2398 168.701 40.1012 167.641 40.1012ZM167.641 35.8398C166.353 35.8398 165.293 36.8976 165.293 38.2047C165.293 39.5118 166.353 40.547 167.641 40.547C168.951 40.547 170.011 39.5194 170.011 38.2047C170.011 36.8976 168.951 35.8398 167.641 35.8398Z" fill="#007E48"/>
<path d="M168.36 37.6759L168.33 37.7288L168.277 37.8421L168.224 37.895L168.087 37.9479H168.057L167.944 37.9781H167.186L167.3 37.419H168.11L168.224 37.4492L168.307 37.5323L168.36 37.5852V37.6759ZM168.89 37.4265L168.86 37.3132L168.777 37.1999L168.663 37.1168L168.549 37.0639H168.496L168.383 37.0336H168.246L168.11 37.0034H166.823L166.429 39.1794H166.959L167.126 38.2879H167.376L167.512 38.3181L167.542 38.3483L167.656 38.4012L167.686 38.4314L167.739 38.5145L167.822 38.6279L167.906 38.7639L168.216 39.2399H168.86L168.64 38.8243L168.557 38.711L168.474 38.5976L168.421 38.5145L168.368 38.4314L168.315 38.3785L168.201 38.2954L168.087 38.2425L168.14 38.2123L168.277 38.1821L168.413 38.1519L168.527 38.0688L168.64 38.0159L168.754 37.9025L168.837 37.8194L168.89 37.7061L168.92 37.5928L168.89 37.4265ZM111.593 54.0034H116.031L118.462 40.2145H106.761L104.33 49.3265C104.164 49.9385 103.573 50.4145 102.937 50.4145H101.846L101.203 54.0336H103.656C105.974 54.0336 107.988 52.4999 108.571 50.271L110.472 43.1385H113.463L111.593 54.0034ZM154.623 51.1323H161.605L161.105 54.0261H153.176C150.723 54.0261 148.428 52.6888 147.171 50.5959C145.944 48.4501 145.944 45.8283 147.171 43.6599C148.428 41.5141 150.715 40.2296 153.176 40.2296H163.566L162.34 47.1354H157.917L158.614 43.1536H154.645C153.222 43.1536 151.881 43.9092 151.185 45.1332C150.458 46.3874 150.458 47.9212 151.185 49.1452C151.859 50.3541 153.199 51.1323 154.623 51.1323Z" fill="#007E48"/>
<path d="M142.672 40.2144H147.474L142.642 47.1201L145.883 54.0032H141.052L137.818 47.1201L142.672 40.2144Z" fill="#007E48"/>
<path d="M134.607 40.2144H139.045L136.614 54.0032H132.146L134.607 40.2144ZM128.715 48.5708H123.52L123.074 51.1321H130.472L129.965 54.0032H118.098L120.529 40.2144H132.396L131.866 43.1384H124.497L124.05 45.6695H129.215L128.715 48.5708ZM94.5915 54.0032L95.8183 47.1201L89.3434 54.0032H84.2544L86.6626 40.2144H91.1004L89.8963 47.1201L96.3485 40.2144H101.483L99.0596 54.0032H94.5915ZM73.5386 47.1201L78.9533 40.2144H84.4816L79.0896 47.1201L82.3308 54.0032H76.7723L73.5386 47.1201ZM74.7654 40.2144L72.3042 54.0032H67.8967L70.3277 40.2144H74.7654ZM58.12 54.0032H63.6786L69.0933 47.1201L65.8596 40.2144H60.3237L63.5423 47.1201L58.12 54.0032Z" fill="#007E48"/>
<path d="M43.8222 43.1384H50.8045C52.2282 43.1384 53.5687 43.894 54.2957 45.118C54.9924 46.3722 54.9924 47.906 54.2957 49.13C53.5687 50.354 52.2282 51.1322 50.8045 51.1322H46.8665L47.5633 47.1202H43.1255L41.9214 54.026H52.2812C54.7652 54.026 57.0598 52.6887 58.2866 50.5958C59.5134 48.45 59.5134 45.8282 58.2866 43.69C57.0598 41.5518 54.7652 40.2598 52.2812 40.2598H44.3523L43.8222 43.1384Z" fill="#007E48"/>
<path d="M16.2338 52.2202H30.1984C33.1291 52.2202 35.8402 50.6638 37.317 48.1251C38.771 45.5865 38.771 42.466 37.317 39.9349C35.8402 37.3962 33.1594 35.8096 30.1984 35.8096H19.2251L18.4451 40.2145H29.5016C30.8724 40.2145 32.1295 40.9398 32.8262 42.1109C33.4926 43.282 33.4926 44.7553 32.8262 45.9265C32.1598 47.0976 30.8724 47.8229 29.5016 47.8229H25.9802L27.0101 41.9976H13.0758C10.1451 41.9976 7.43394 43.554 5.95721 46.0927C4.5032 48.6313 4.5032 51.7518 5.95721 54.2527C7.43394 56.7913 10.1451 58.3478 13.0758 58.3478H24.1021L24.8594 53.9731H13.8028C12.4321 53.9731 11.1523 53.2478 10.4783 52.1069C9.81186 50.9358 9.81186 49.4625 10.4783 48.2611C11.1447 47.09 12.4321 46.3647 13.8028 46.3647H17.3243L16.2338 52.2202Z" fill="#0092D4"/>
<path d="M160.575 56.9272H31.0617L30.8118 58.3779H160.348L160.575 56.9272Z" fill="#007E48"/>
</g>
</g>
<defs>
<clipPath id="clip0_2022_23">
<rect width="166" height="34" fill="white" transform="translate(4 35)"/>
</clipPath>
</defs>
</svg>
