<svg width="174" height="104" viewBox="0 0 174 104" fill="none" xmlns="http://www.w3.org/2000/svg">
<mask id="mask0_2022_9" style="mask-type:alpha" maskUnits="userSpaceOnUse" x="0" y="0" width="174" height="104">
<rect width="174" height="104" fill="#D9D9D9"/>
</mask>
<g mask="url(#mask0_2022_9)">
<path d="M45 56.5547H128V87.0129H45V56.5547Z" fill="#FFED00"/>
<path d="M45 17H128V53.4623H45V17Z" fill="black"/>
<path fill-rule="evenodd" clip-rule="evenodd" d="M66.9032 29.8582H62.7416L60.577 36.6353C60.2163 37.782 59.8169 39.122 59.6494 39.8435C59.4819 39.1478 59.0825 37.7563 58.7217 36.6353L56.5572 29.8582H52.2925L57.6008 44.4947H61.5949L66.9032 29.8582ZM88.8449 37.2022C88.8449 37.7563 88.8192 38.1557 88.7934 38.4262H79.9677C80.6893 43.0001 85.8687 41.3767 87.0669 40.3846L87.1313 40.3975L87.724 43.3351C86.7835 44.0566 85.1214 44.8039 82.9955 44.8039C78.7566 44.8039 76.0509 41.8148 76.0509 37.1894C76.0509 32.7057 78.8855 29.549 82.6219 29.549C86.5773 29.5619 88.8449 33.0149 88.8449 37.2022ZM85.0828 35.5273C84.9668 34.2131 84.1809 32.9118 82.4415 32.9118C81.0371 32.9118 80.161 34.0585 80.0193 35.5273H85.0828ZM69.3125 29.8582H73.3066V44.4947H69.3125V29.8582ZM74.6723 24.2923C74.6723 22.4756 73.1391 20.9424 71.2967 20.9424C69.4542 20.9424 67.921 22.4627 67.921 24.2923C67.921 26.1089 69.4542 27.6422 71.2967 27.6422C73.1391 27.6422 74.6723 26.1218 74.6723 24.2923ZM99.7707 39.9595V34.445C99.1781 33.6333 98.2762 33.1953 97.1553 33.1953C95.6607 33.1953 94.849 34.4837 94.849 36.9317C94.849 39.9466 95.8668 41.1963 97.3743 41.1963C98.5854 41.1835 99.2038 40.681 99.7707 39.9595ZM103.7 41.9952C103.919 49.0557 99.6161 50.3441 94.398 50.2539L93.7925 47.0458L93.8311 47.0071C96.8074 47.0071 100.054 47.0973 99.8352 43.5541C99.1008 44.1984 98.1216 44.7781 96.7172 44.7781C93.5734 44.7781 90.9837 42.4332 90.9837 36.9703C90.9837 32.5897 93.0581 29.5233 96.7172 29.5233C98.0056 29.5233 99.1394 30.0257 99.8352 30.67L99.848 29.8325H103.713L103.7 41.9952ZM115.026 40.2043V38.3618C114.356 37.9495 113.699 37.7434 112.333 37.7434C110.877 37.7434 110.091 38.4134 110.091 39.5858C110.091 40.6166 110.684 41.5313 112.333 41.5313C113.595 41.5442 114.613 40.9 115.026 40.2043ZM118.93 44.5462H115.09L115.051 43.567C114.343 44.2886 113.119 44.8555 111.74 44.8555C108.983 44.8555 106.239 43.1805 106.239 39.6374C106.239 36.4034 108.88 34.78 112.217 34.78C113.57 34.78 114.433 35.0635 115.051 35.3598V34.6383C115.051 32.9633 112.848 31.559 108.493 33.8008L108.442 33.7879L107.888 30.8503C110.336 29.2656 118.93 27.9256 118.93 34.9217V44.5462Z" fill="#FFED00"/>
</g>
</svg>
