<svg width="745" height="1097" viewBox="0 0 745 1097" fill="none" xmlns="http://www.w3.org/2000/svg">
<mask id="mask0_2071_2" style="mask-type:alpha" maskUnits="userSpaceOnUse" x="0" y="0" width="745" height="1097">
<rect width="745" height="1097" fill="#F4F6FB"/>
</mask>
<g mask="url(#mask0_2071_2)">
<path d="M-215 115.274L265.004 -161L745 115.274V667.514L-1.19865 1097V851.182L531.2 544.758V238.118L265.004 84.8983L-1.19865 238.118V608.556L-77.56 652.503V194.373L265.004 -2.79187L607.569 194.373V588.495L75.1627 894.927V965.519L668.639 623.941V159.019L265.004 -73.3022L-138.639 159.019V768.078L390.281 463.645V319.226L265.004 247.119L139.72 319.226V527.443L63.3509 571.403V275.481L265.004 159.422L466.642 275.481V507.389L-215 899.723V115.274Z" fill="#352C2B" fill-opacity="0.1"/>
</g>
</svg>
