<svg width="49" height="63" viewBox="0 0 49 63" fill="none" xmlns="http://www.w3.org/2000/svg">
<path d="M12 9.62516C8.91141 9.62756 7.29247 9.66681 6.03756 10.3062C4.86153 10.9054 3.90541 11.8615 3.30622 13.0376C2.625 14.3745 2.625 16.1247 2.625 19.625V49.625C2.625 53.1253 2.625 54.8756 3.30622 56.2125C3.90541 57.3884 4.86153 58.3447 6.03756 58.9437C7.3745 59.625 9.12466 59.625 12.625 59.625H36.375C39.8753 59.625 41.6256 59.625 42.9625 58.9437C44.1384 58.3447 45.0947 57.3884 45.6937 56.2125C46.375 54.8756 46.375 53.1253 46.375 49.625V19.625C46.375 16.1247 46.375 14.3745 45.6937 13.0376C45.0947 11.8615 44.1384 10.9054 42.9625 10.3062C41.7075 9.66681 40.0887 9.62756 37 9.62516M12 9.62516V15.875H37V9.62516M12 9.62516V8.70972C12 7.29484 12.5621 5.93794 13.5625 4.9375C14.5629 3.93706 15.9198 3.375 17.3347 3.375H31.6653C33.08 3.375 34.4372 3.93706 35.4375 4.9375C36.4378 5.93794 37 7.29484 37 8.70972V9.62516M37 28.375H30.75M37 44H30.75M12 28.375L15.125 31.5L21.375 25.25M12 44L15.125 47.125L21.375 40.875" stroke="#4DBD3C" stroke-width="5.2" stroke-linecap="square"/>
</svg>
