<svg width="68" height="68" viewBox="0 0 68 68" fill="none" xmlns="http://www.w3.org/2000/svg">
<path d="M39.6673 54.6428L44.7673 59.5L56.6673 48.1667M46.7506 40.8051C45.9154 40.3226 44.9894 39.9778 44.0032 39.8004C43.7892 39.7622 43.5626 39.7347 43.3059 39.7151C42.6678 39.6667 42.3488 39.6426 41.9229 39.6743C41.4804 39.7072 41.2333 39.7508 40.806 39.8715C40.3952 39.9874 39.6551 40.3226 38.1747 40.9932C36.0381 41.9611 33.6655 42.5 31.1673 42.5C28.6692 42.5 26.2966 41.9611 24.16 40.9932C22.6795 40.3226 21.9392 39.9871 21.5282 39.8712C21.101 39.7508 20.8535 39.7072 20.4109 39.674C19.985 39.6423 19.6662 39.6667 19.0286 39.7154C18.7678 39.7352 18.5377 39.7633 18.3198 39.8027C14.8315 40.4342 12.1014 43.1641 11.4699 46.6525C11.334 47.4034 11.334 48.3041 11.334 50.1049V54.9667C11.334 56.5536 11.334 57.347 11.6428 57.953C11.9144 58.4862 12.3479 58.9195 12.881 59.1912C13.4871 59.5 14.2805 59.5 15.8673 59.5H29.7506M42.5006 19.8333C42.5006 26.0926 37.4264 31.1667 31.1673 31.1667C24.9081 31.1667 19.834 26.0926 19.834 19.8333C19.834 13.5741 24.9081 8.5 31.1673 8.5C37.4264 8.5 42.5006 13.5741 42.5006 19.8333Z" stroke="#4DBD3C" stroke-width="5.2" stroke-linecap="square"/>
</svg>
