<svg width="62" height="56" viewBox="0 0 62 56" fill="none" xmlns="http://www.w3.org/2000/svg">
<path d="M33.9375 33.94L15.375 33.9375M33.9375 33.94L26.2031 26.2031M33.9375 33.94L26.2031 41.6719M58.6875 27.75V25.275C58.6875 21.8097 58.6875 20.077 58.0131 18.7534C57.42 17.5892 56.4733 16.6426 55.3091 16.0494C53.9856 15.375 52.2528 15.375 48.7875 15.375H3M58.6875 27.75V40.125M58.6875 27.75H52.5C49.0827 27.75 46.3125 30.5201 46.3125 33.9375C46.3125 37.3549 49.0827 40.125 52.5 40.125H58.6875M3 15.375V42.6C3 46.0653 3 47.7981 3.67441 49.1216C4.2676 50.2858 5.21417 51.2325 6.37844 51.8256C7.70201 52.5 9.43469 52.5 12.9 52.5H48.7875C52.2528 52.5 53.9856 52.5 55.3091 51.8256C56.4733 51.2325 57.42 50.2858 58.0131 49.1216C58.6875 47.7981 58.6875 46.0653 58.6875 42.6V40.125M3 15.375V12.9C3 9.43469 3 7.70201 3.67441 6.37844C4.2676 5.21417 5.21417 4.2676 6.37844 3.67441C7.70201 3 9.43466 3 12.9 3H39.5063C42.9716 3 44.7044 3 46.0279 3.67441C47.1921 4.2676 48.1387 5.21417 48.7318 6.37844C49.4063 7.70201 49.4063 9.43469 49.4063 12.9V15.375" stroke="#4DBD3C" stroke-width="5.2" stroke-linecap="square"/>
</svg>
