<svg width="64" height="46" viewBox="0 0 64 46" fill="none" xmlns="http://www.w3.org/2000/svg">
<path d="M61.23 11.2343H55.407M55.407 11.2343H52.4955C46.6725 5.41647 37.938 -0.412319 32.115 5.41129M55.407 11.2343V34.5261M32.115 5.41129L23.3792 14.1505C23.1482 14.3817 23.0326 14.4972 22.9397 14.5995C20.9202 16.8213 20.9211 20.2141 22.9416 22.435C23.0346 22.5372 23.1504 22.6527 23.3814 22.8836C23.6124 23.1145 23.728 23.2301 23.8303 23.323C26.0516 25.3415 29.4434 25.3412 31.664 23.3218C31.7662 23.2289 31.8818 23.1133 32.1127 22.8825L35.0253 19.9698M32.115 5.41129C26.292 -0.412319 17.5575 5.41668 11.7345 11.2345H8.823M55.407 34.5261V43.2606H61.23M55.407 34.5261H47.1721M8.823 11.2345H3M8.823 11.2345V34.5261M8.823 34.5261H14.646L15.7581 36.7505C17.2536 39.7415 21.374 40.113 23.3805 37.4376C24.968 39.0253 25.7617 39.8189 26.6181 40.2434C28.2471 41.0505 30.1599 41.0505 31.7889 40.2434C32.6452 39.8189 33.4391 39.0253 35.0265 37.4376L36.4822 38.8934C36.714 39.1251 36.8302 39.2413 36.9326 39.3348C39.1538 41.3536 42.5451 41.3536 44.7663 39.3348C44.8688 39.2413 44.985 39.1251 45.2167 38.8934C45.4485 38.6616 45.5647 38.5457 45.6578 38.443C47.6767 36.2221 47.6767 32.8305 45.6578 30.6096C45.5647 30.5068 45.4485 30.3909 45.2167 30.1589L40.8495 25.7916M8.823 34.5261V43.2606H3" stroke="#4DBD3C" stroke-width="5.2" stroke-linecap="square"/>
</svg>
