<svg width="75" height="75" viewBox="0 0 75 75" fill="none" xmlns="http://www.w3.org/2000/svg">
<path d="M53.125 34.375C44.4956 34.375 37.5 41.3706 37.5 50C37.5 58.6294 44.4956 65.625 53.125 65.625C61.7544 65.625 68.75 58.6294 68.75 50C68.75 41.3706 61.7544 34.375 53.125 34.375ZM53.125 34.375V28.125M53.125 28.125V25.625C53.125 22.1247 53.125 20.3745 52.4437 19.0376C51.8447 17.8615 50.8884 16.9054 49.7125 16.3062C48.3756 15.625 46.6253 15.625 43.125 15.625H16.25C12.7497 15.625 10.9995 15.625 9.66256 16.3062C8.48653 16.9054 7.53041 17.8615 6.93122 19.0376C6.25 20.3745 6.25 22.1247 6.25 25.625V28.125M53.125 28.125H6.25M6.25 28.125V49.375C6.25 52.8753 6.25 54.6256 6.93122 55.9625C7.53041 57.1384 8.48653 58.0947 9.66256 58.6937C10.9995 59.375 12.7497 59.375 16.25 59.375H39M15.625 9.375V15.625M43.75 9.375V15.625M46.875 50H53.125M53.125 50H59.375M53.125 50V43.75M53.125 50V56.25" stroke="#4DBD3C" stroke-width="5.2" stroke-linecap="square"/>
</svg>
