<svg width="75" height="75" viewBox="0 0 75 75" fill="none" xmlns="http://www.w3.org/2000/svg">
<path d="M47.75 38.375C47.75 43.5528 43.5528 47.75 38.375 47.75C33.1972 47.75 29 43.5528 29 38.375C29 33.1972 33.1972 29 38.375 29C43.5528 29 47.75 33.1972 47.75 38.375Z" stroke="#4DBD3C" stroke-width="5.2" stroke-linecap="round" stroke-linejoin="round"/>
<path d="M40.3269 9.56266C39.6838 9.375 38.9559 9.375 37.5 9.375C36.0441 9.375 35.3162 9.375 34.6731 9.56266C33.7319 9.83731 32.9003 10.4002 32.2956 11.1722C31.8825 11.6996 31.6122 12.3755 31.0716 13.7273C30.2943 15.6704 28.1373 16.671 26.1518 16.0094L24.3681 15.415C23.1028 14.9933 22.4702 14.7824 21.8499 14.7463C20.9387 14.6932 20.0319 14.9073 19.2407 15.3622C18.702 15.6719 18.2305 16.1435 17.2874 17.0866C16.2851 18.0889 15.7839 18.5901 15.4655 19.1622C14.9977 20.0026 14.7998 20.9667 14.8987 21.9235C14.966 22.5747 15.2292 23.2328 15.7557 24.5489C16.5802 26.6101 15.787 28.9649 13.8835 30.1073L13.0163 30.6277C11.6885 31.4244 11.0246 31.8228 10.5423 32.3712C10.1156 32.8566 9.79378 33.425 9.59716 34.0406C9.375 34.7362 9.375 35.5181 9.375 37.0822C9.375 38.9341 9.375 39.8597 9.67069 40.6525C9.93197 41.3528 10.3569 41.9803 10.9101 42.4831C11.5362 43.0519 12.3873 43.3925 14.0896 44.0734C15.8292 44.7691 16.7249 46.7003 16.1324 48.4778L15.46 50.495C14.9943 51.8919 14.7615 52.5906 14.7403 53.2769C14.7148 54.1022 14.9078 54.9194 15.2996 55.6459C15.6255 56.2506 16.1462 56.7712 17.1875 57.8125C18.2288 58.8538 18.7495 59.3744 19.3539 59.7003C20.0806 60.0922 20.8979 60.2853 21.7231 60.2597C22.4094 60.2384 23.108 60.0056 24.5051 59.54L26.1519 58.9909C28.1373 58.3294 30.2944 59.3297 31.0716 61.2728C31.6122 62.6244 31.8825 63.3003 32.2956 63.8278C32.9003 64.5997 33.7319 65.1628 34.6731 65.4375C35.3162 65.625 36.0441 65.625 37.5 65.625C38.9559 65.625 39.6838 65.625 40.3269 65.4375C41.2681 65.1628 42.0997 64.5997 42.7044 63.8278C43.1175 63.3003 43.3878 62.6244 43.9284 61.2728C44.7056 59.3297 46.8628 58.3294 48.8478 58.9916L50.4934 59.5403C51.8906 60.0059 52.5894 60.2387 53.2756 60.26C54.1009 60.2853 54.9181 60.0925 55.6447 59.7006C56.2491 59.3747 56.77 58.8541 57.8112 57.8128C58.8525 56.7716 59.3731 56.2506 59.6991 55.6463C60.0909 54.9197 60.2837 54.1022 60.2584 53.2772C60.2372 52.5909 60.0044 51.8922 59.5388 50.495L58.8669 48.4794C58.2741 46.7013 59.17 44.7694 60.9103 44.0734C62.6125 43.3925 63.4638 43.0519 64.09 42.4831C64.6431 41.9803 65.0681 41.3528 65.3294 40.6525C65.625 39.8597 65.625 38.9341 65.625 37.0822C65.625 35.5181 65.625 34.7362 65.4028 34.0406C65.2062 33.425 64.8844 32.8566 64.4578 32.3712C63.9753 31.8228 63.3116 31.4244 61.9838 30.6277L61.1153 30.1068C59.2119 28.9646 58.4184 26.6098 59.2431 24.5487C59.7694 23.2326 60.0328 22.5745 60.1 21.9232C60.1988 20.9664 60.0009 20.0024 59.5331 19.1619C59.2147 18.5898 58.7137 18.0887 57.7112 17.0863C56.7681 16.1432 56.2966 15.6717 55.7581 15.362C54.9669 14.907 54.06 14.6929 53.1488 14.746C52.5284 14.7822 51.8959 14.993 50.6306 15.4148L48.8481 16.009C46.8628 16.6707 44.7056 15.6703 43.9284 13.7273C43.3878 12.3755 43.1175 11.6996 42.7044 11.1722C42.0997 10.4002 41.2681 9.83731 40.3269 9.56266Z" stroke="#4DBD3C" stroke-width="5.2" stroke-linecap="round" stroke-linejoin="round"/>
</svg>
