<svg width="62" height="62" viewBox="0 0 62 62" fill="none" xmlns="http://www.w3.org/2000/svg">
<g clip-path="url(#clip0_963_328)">
<path d="M52.3565 30.3109C49.2565 27.0387 45.1232 24.7998 40.8176 23.9387C38.9232 23.422 37.0287 23.0776 35.1343 22.9054C39.9565 17.222 39.0954 8.61093 33.4121 3.78871C27.7287 -1.03352 19.1176 -0.172404 14.2954 5.51093C9.47318 11.1943 10.3343 19.8054 16.0176 24.6276C17.051 25.4887 18.0843 26.1776 19.1176 26.522V30.3109L16.3621 27.7276C13.951 25.3165 9.98985 25.3165 7.40651 27.7276C4.9954 30.1387 4.82318 33.9276 7.23429 36.3387L15.1565 45.6387C15.501 48.0498 16.3621 50.2887 17.5676 52.3554C18.4287 53.9054 19.6343 55.4554 20.8398 56.6609V59.9331C20.8398 60.9665 21.5287 61.6554 22.5621 61.6554H45.9843C46.8454 61.6554 47.7065 60.7943 47.7065 59.9331V55.4554C50.9787 51.4943 52.701 46.4998 52.701 41.5054V31.5165C52.8732 30.8276 52.701 30.4832 52.3565 30.3109ZM14.4676 14.122C14.4676 8.43871 19.1176 3.96093 24.801 4.13315C30.4843 4.13315 34.9621 8.78315 34.7898 14.4665C34.7898 17.5665 33.4121 20.322 31.001 22.2165V13.6054C30.8287 10.5054 28.2454 8.09426 25.1454 8.09426C22.0454 7.92204 19.2898 10.5054 19.2898 13.6054V22.5609C16.3621 20.8387 14.6398 17.5665 14.4676 14.122ZM49.4287 41.3332C49.601 45.8109 48.051 50.1165 45.1232 53.5609C44.7787 53.9054 44.4343 54.2498 44.4343 54.7665V58.3832H24.4565V55.972C24.4565 55.4554 24.1121 54.9387 23.7676 54.5943C22.5621 53.5609 21.5287 52.3554 20.6676 50.8054C19.6343 49.0832 18.9454 47.0165 18.601 44.9498C18.601 44.6054 18.4287 44.2609 18.2565 43.9165L9.98985 34.0998C9.47318 33.5832 9.12874 32.8943 9.12874 32.0332C9.12874 31.3443 9.47318 30.4832 9.98985 29.9665C11.1954 28.9332 12.9176 28.9332 14.1232 29.9665L19.1176 34.9609V40.1276L22.3898 38.4054V13.6054C22.5621 12.3998 23.5954 11.3665 24.9732 11.5387C26.1787 11.5387 27.3843 12.3998 27.3843 13.6054V33.4109L30.8287 34.0998V26.1776C31.001 26.0054 31.1732 26.0054 31.3454 25.8332C32.551 25.8332 33.7565 26.0054 34.9621 26.1776V34.9609L37.7176 35.4776V26.522L39.7843 27.0387C40.6454 27.2109 41.5065 27.5554 42.3676 27.8998V36.5109L45.1232 37.0276V29.1054C46.6732 29.7943 48.051 30.8276 49.2565 32.0332L49.4287 41.3332Z" fill="#4DBD3C" stroke="#4DBD3C"/>
</g>
<defs>
<clipPath id="clip0_963_328">
<rect width="62" height="62" fill="white"/>
</clipPath>
</defs>
</svg>
