<svg width="75" height="75" viewBox="0 0 75 75" fill="none" xmlns="http://www.w3.org/2000/svg">
<path d="M37.5 40.625L46.3387 31.7862M46.3387 31.7862C44.0769 29.5241 40.9519 28.125 37.5 28.125C30.5964 28.125 25 33.7216 25 40.625C25 47.5284 30.5964 53.125 37.5 53.125C44.4034 53.125 50 47.5284 50 40.625C50 37.1731 48.6009 34.0481 46.3387 31.7862ZM10.9375 40.625H10.9687M37.5 14.0625H37.5313M64.0625 40.625H64.0938M18.75 21.875H18.7813M56.25 21.875H56.2813M18.75 59.375H18.7813M56.25 59.375H56.2813M12.5 40.625C12.5 41.4878 11.8004 42.1875 10.9375 42.1875C10.0746 42.1875 9.375 41.4878 9.375 40.625C9.375 39.7622 10.0746 39.0625 10.9375 39.0625C11.8004 39.0625 12.5 39.7622 12.5 40.625ZM39.0625 14.0625C39.0625 14.9254 38.3628 15.625 37.5 15.625C36.6372 15.625 35.9375 14.9254 35.9375 14.0625C35.9375 13.1996 36.6372 12.5 37.5 12.5C38.3628 12.5 39.0625 13.1996 39.0625 14.0625ZM65.625 40.625C65.625 39.7622 64.9253 39.0625 64.0625 39.0625C63.1997 39.0625 62.5 39.7622 62.5 40.625C62.5 41.4878 63.1997 42.1875 64.0625 42.1875C64.9253 42.1875 65.625 41.4878 65.625 40.625ZM20.3125 21.875C20.3125 22.7379 19.6129 23.4375 18.75 23.4375C17.8871 23.4375 17.1875 22.7379 17.1875 21.875C17.1875 21.0121 17.8871 20.3125 18.75 20.3125C19.6129 20.3125 20.3125 21.0121 20.3125 21.875ZM57.8125 21.875C57.8125 21.0121 57.1128 20.3125 56.25 20.3125C55.3872 20.3125 54.6875 21.0121 54.6875 21.875C54.6875 22.7379 55.3872 23.4375 56.25 23.4375C57.1128 23.4375 57.8125 22.7379 57.8125 21.875ZM20.3125 59.375C20.3125 60.2378 19.6129 60.9375 18.75 60.9375C17.8871 60.9375 17.1875 60.2378 17.1875 59.375C17.1875 58.5122 17.8871 57.8125 18.75 57.8125C19.6129 57.8125 20.3125 58.5122 20.3125 59.375ZM57.8125 59.375C57.8125 58.5122 57.1128 57.8125 56.25 57.8125C55.3872 57.8125 54.6875 58.5122 54.6875 59.375C54.6875 60.2378 55.3872 60.9375 56.25 60.9375C57.1128 60.9375 57.8125 60.2378 57.8125 59.375Z" stroke="#4DBD3C" stroke-width="5.2" stroke-linecap="square"/>
</svg>
