<svg width="75" height="75" viewBox="0 0 75 75" fill="none" xmlns="http://www.w3.org/2000/svg">
<path d="M28.123 37.5004L34.373 43.7504L46.873 31.2504M62.498 37.5004C62.498 51.4413 45.4355 61.5432 39.5024 64.6348C38.8609 64.9692 38.5399 65.1363 38.0949 65.2229C37.748 65.2904 37.248 65.2904 36.9012 65.2229C36.4562 65.1363 36.1352 64.9692 35.4937 64.6348C29.5604 61.5432 12.498 51.4413 12.498 37.5004V25.6804C12.498 23.1819 12.498 21.9327 12.9067 20.8588C13.2676 19.9102 13.8542 19.0637 14.6157 18.3927C15.4777 17.633 16.6474 17.1944 18.9868 16.3171L35.7424 10.0338C36.3921 9.79013 36.7168 9.66831 37.0512 9.62C37.3474 9.57719 37.6487 9.57719 37.9449 9.62C38.2793 9.66831 38.604 9.79013 39.2537 10.0338L56.0093 16.3171C58.3487 17.1944 59.5184 17.633 60.3802 18.3927C61.1418 19.0637 61.7284 19.9102 62.0893 20.8588C62.498 21.9327 62.498 23.1819 62.498 25.6804V37.5004Z" stroke="#4DBD3C" stroke-width="5.2" stroke-linecap="square"/>
</svg>
