<svg width="75" height="75" viewBox="0 0 75 75" fill="none" xmlns="http://www.w3.org/2000/svg">
<path d="M7.8125 17.1875L9.73788 19.1129C11.5064 20.8814 13.9051 21.875 16.4062 21.875C18.9074 21.875 21.3061 20.8814 23.0746 19.1129L23.8004 18.3871C25.5689 16.6186 27.9676 15.625 30.4687 15.625C32.97 15.625 35.3684 16.6186 37.1372 18.3871L37.8628 19.1129C39.6316 20.8814 42.03 21.875 44.5312 21.875C47.0325 21.875 49.4309 20.8814 51.1997 19.1129L51.9253 18.3871C53.6941 16.6186 56.0925 15.625 58.5937 15.625C61.095 15.625 63.4934 16.6186 65.2622 18.3871L67.1875 20.3125M7.8125 35.9375L9.73788 37.8628C11.5064 39.6316 13.9051 40.625 16.4062 40.625C18.9074 40.625 21.3061 39.6316 23.0746 37.8628L23.8004 37.1372C25.5689 35.3684 27.9676 34.375 30.4687 34.375C32.97 34.375 35.3684 35.3684 37.1372 37.1372L37.8628 37.8628C39.6316 39.6316 42.03 40.625 44.5312 40.625C47.0325 40.625 49.4309 39.6316 51.1997 37.8628L51.9253 37.1372C53.6941 35.3684 56.0925 34.375 58.5937 34.375C61.095 34.375 63.4934 35.3684 65.2622 37.1372L67.1875 39.0625M7.8125 54.6875L9.73788 56.6128C11.5064 58.3816 13.9051 59.375 16.4062 59.375C18.9074 59.375 21.3061 58.3816 23.0746 56.6128L23.8004 55.8872C25.5689 54.1184 27.9676 53.125 30.4687 53.125C32.97 53.125 35.3684 54.1184 37.1372 55.8872L37.8628 56.6128C39.6316 58.3816 42.03 59.375 44.5312 59.375C47.0325 59.375 49.4309 58.3816 51.1997 56.6128L51.9253 55.8872C53.6941 54.1184 56.0925 53.125 58.5937 53.125C61.095 53.125 63.4934 54.1184 65.2622 55.8872L67.1875 57.8125" stroke="#4DBD3C" stroke-width="5.2" stroke-linecap="square"/>
</svg>
