<svg width="75" height="75" viewBox="0 0 75 75" fill="none" xmlns="http://www.w3.org/2000/svg">
<g clip-path="url(#clip0_951_9581)">
<path d="M25 15.6252C21.9114 15.6276 20.2925 15.6668 19.0376 16.3062C17.8615 16.9054 16.9054 17.8615 16.3062 19.0376C15.625 20.3745 15.625 22.1247 15.625 25.625V55.625C15.625 59.1253 15.625 60.8756 16.3062 62.2125C16.9054 63.3884 17.8615 64.3447 19.0376 64.9437C20.3745 65.625 22.1247 65.625 25.625 65.625H49.375C52.8753 65.625 54.6256 65.625 55.9625 64.9437C57.1384 64.3447 58.0947 63.3884 58.6937 62.2125C59.375 60.8756 59.375 59.1253 59.375 55.625V25.625C59.375 22.1247 59.375 20.3745 58.6937 19.0376C58.0947 17.8615 57.1384 16.9054 55.9625 16.3062C54.7075 15.6668 53.0887 15.6276 50 15.6252M25 15.6252V21.875H50V15.6252M25 15.6252V14.7097C25 13.2948 25.5621 11.9379 26.5625 10.9375C27.5629 9.93706 28.9198 9.375 30.3347 9.375H44.6653C46.08 9.375 47.4372 9.93706 48.4375 10.9375C49.4378 11.9379 50 13.2948 50 14.7097V15.6252M50 34.375H43.75M50 50H43.75M25 34.375L28.125 37.5L34.375 31.25M25 50L28.125 53.125L34.375 46.875" stroke="#4DBD3C" stroke-width="5.2" stroke-linecap="square"/>
</g>
<defs>
<clipPath id="clip0_951_9581">
<rect width="75" height="75" fill="white"/>
</clipPath>
</defs>
</svg>
