<svg width="75" height="75" viewBox="0 0 75 75" fill="none" xmlns="http://www.w3.org/2000/svg">
<path d="M47.2809 9.375V15.625M47.2809 15.625V31.2021M47.2809 15.625L44.1559 12.5M47.2809 15.625L50.4059 12.5M47.2809 31.2021V31.2978M47.2809 31.2021L42.1875 28.2614M47.2809 31.2021L47.3637 31.25M47.2809 31.2978V46.875M47.2809 31.2978L47.3637 31.25M47.2809 31.2978L42.1875 34.2381M47.3637 31.25L60.6244 38.9059M47.3637 31.25L60.6241 23.5938M47.2809 46.875V53.125M47.2809 46.875L44.1559 50M47.2809 46.875L50.4059 50M60.6244 38.9059L66.3081 42.1875M60.6244 38.9059L62.2253 44.8825M60.6244 38.9059L66.5997 37.305M60.6241 23.5938L66.3072 20.3125M60.6241 23.5938L62.2253 17.6174M60.6241 23.5938L66.6009 25.195M21.875 49.9994C20.1491 49.9994 18.75 51.3984 18.75 53.1244C18.75 54.8503 20.1491 56.2494 21.875 56.2494C23.6009 56.2494 25 54.8503 25 53.1244C25 51.3984 23.6009 49.9994 21.875 49.9994ZM21.875 49.9994L21.8971 43.75M21.875 53.1244L21.8971 53.1466M34.375 53.1244C34.375 60.0281 28.7786 65.6244 21.875 65.6244C14.9714 65.6244 9.375 60.0281 9.375 53.1244C9.375 49.9544 10.5551 47.0597 12.5 44.8562V18.75C12.5 13.5723 16.6973 9.375 21.875 9.375C27.0527 9.375 31.25 13.5723 31.25 18.75V44.8562C33.195 47.0597 34.375 49.9544 34.375 53.1244Z" stroke="#4DBD3C" stroke-width="5.2" stroke-linecap="square"/>
</svg>
