<svg width="75" height="75" viewBox="0 0 75 75" fill="none" xmlns="http://www.w3.org/2000/svg">
<path d="M40.9375 43.94L22.375 43.9375M40.9375 43.94L33.2031 36.2031M40.9375 43.94L33.2031 51.6719M65.6875 37.75V35.275C65.6875 31.8097 65.6875 30.077 65.0131 28.7534C64.42 27.5892 63.4733 26.6426 62.3091 26.0494C60.9856 25.375 59.2528 25.375 55.7875 25.375H10M65.6875 37.75V50.125M65.6875 37.75H59.5C56.0827 37.75 53.3125 40.5201 53.3125 43.9375C53.3125 47.3549 56.0827 50.125 59.5 50.125H65.6875M10 25.375V52.6C10 56.0653 10 57.7981 10.6744 59.1216C11.2676 60.2858 12.2142 61.2325 13.3784 61.8256C14.702 62.5 16.4347 62.5 19.9 62.5H55.7875C59.2528 62.5 60.9856 62.5 62.3091 61.8256C63.4733 61.2325 64.42 60.2858 65.0131 59.1216C65.6875 57.7981 65.6875 56.0653 65.6875 52.6V50.125M10 25.375V22.9C10 19.4347 10 17.702 10.6744 16.3784C11.2676 15.2142 12.2142 14.2676 13.3784 13.6744C14.702 13 16.4347 13 19.9 13H46.5063C49.9716 13 51.7044 13 53.0279 13.6744C54.1921 14.2676 55.1387 15.2142 55.7318 16.3784C56.4063 17.702 56.4063 19.4347 56.4063 22.9V25.375" stroke="#4DBD3C" stroke-width="5.2" stroke-linecap="square"/>
</svg>
