<svg width="75" height="75" viewBox="0 0 75 75" fill="none" xmlns="http://www.w3.org/2000/svg">
<path d="M37.5 9.375V34.375M37.5 34.375L28.125 25M37.5 34.375L46.875 25M7.8125 45.3125L9.73788 47.2378C11.5064 49.0066 13.9051 50 16.4062 50C18.9074 50 21.3061 49.0066 23.0746 47.2378L23.8004 46.5122C25.5689 44.7434 27.9676 43.75 30.4687 43.75C32.97 43.75 35.3684 44.7434 37.1372 46.5122L37.8628 47.2378C39.6316 49.0066 42.03 50 44.5312 50C47.0325 50 49.4309 49.0066 51.1997 47.2378L51.9253 46.5122C53.6941 44.7434 56.0925 43.75 58.5937 43.75C61.095 43.75 63.4934 44.7434 65.2622 46.5122L67.1875 48.4375M7.8125 60.9375L9.73788 62.8628C11.5064 64.6316 13.9051 65.625 16.4062 65.625C18.9074 65.625 21.3061 64.6316 23.0746 62.8628L23.8004 62.1372C25.5689 60.3684 27.9676 59.375 30.4687 59.375C32.97 59.375 35.3684 60.3684 37.1372 62.1372L37.8628 62.8628C39.6316 64.6316 42.03 65.625 44.5312 65.625C47.0325 65.625 49.4309 64.6316 51.1997 62.8628L51.9253 62.1372C53.6941 60.3684 56.0925 59.375 58.5937 59.375C61.095 59.375 63.4934 60.3684 65.2622 62.1372L67.1875 64.0625" stroke="#4DBD3C" stroke-width="5.2" stroke-linecap="square"/>
</svg>
