<svg width="75" height="75" viewBox="0 0 75 75" fill="none" xmlns="http://www.w3.org/2000/svg">
<g clip-path="url(#clip0_963_302)">
<mask id="mask0_963_302" style="mask-type:luminance" maskUnits="userSpaceOnUse" x="7" y="5" width="63" height="63">
<path d="M70 5H7V68H70V5Z" fill="white"/>
</mask>
<g mask="url(#mask0_963_302)">
<mask id="path-2-outside-1_963_302" maskUnits="userSpaceOnUse" x="6" y="4.87354" width="65" height="63" fill="black">
<rect fill="white" x="6" y="4.87354" width="65" height="63"/>
<path d="M68.7695 55.6825C67.4762 55.6825 66.2072 56.0358 65.1001 56.7042C63.621 57.5969 61.7834 57.5969 60.3043 56.7042C58.0408 55.3377 55.2286 55.3378 52.9651 56.7042C51.4861 57.597 49.6484 57.5969 48.1693 56.7042C45.9059 55.3378 43.0937 55.3378 40.8303 56.7042C39.4595 57.5316 37.7813 57.5906 36.3653 56.8844L42.4747 50.7752C43.7756 49.474 43.7756 47.3571 42.4747 46.0561L38.5475 42.1288L46.1684 34.5079C46.6489 34.0275 46.6489 33.2484 46.1684 32.7678C45.6879 32.2872 44.9088 32.2872 44.4282 32.7678L40.722 36.4739L38.0187 33.7705L54.0544 17.7347L56.7577 20.4382L52.0294 25.1665C51.5489 25.647 51.5488 26.4261 52.0294 26.9067C52.51 27.3873 53.2891 27.3872 53.7695 26.9067L59.1005 21.5757L64.2091 20.6045C64.8037 20.4914 65.3438 20.2058 65.7711 19.7784C65.7896 19.76 65.8073 19.74 65.8255 19.7207C65.8279 19.7183 65.8307 19.7163 65.8333 19.7139L67.447 18.1002C69.01 16.5372 69.0098 13.9941 67.447 12.4313L62.0614 7.04565C60.4984 5.48283 57.9553 5.48283 56.3924 7.04565L54.7786 8.6594C54.3261 9.10484 54.007 9.65584 53.8877 10.2831L52.9163 15.3925L32.3637 35.9452L28.4362 32.0177C27.136 30.7177 25.0193 30.7172 23.7169 32.0178L16.483 39.2528C10.7476 44.9881 11.2347 52.5359 12.1985 56.9329C12.0513 56.8639 11.906 56.7895 11.7647 56.7042C10.7065 56.0654 9.49416 55.7128 8.25865 55.6844C7.92544 55.6776 7.60724 55.803 7.37037 56.0345C7.13351 56.2662 7 56.5834 7 56.9146V65.8962C7 66.5759 7.55088 67.1267 8.23047 67.1267H68.7695C69.4492 67.1267 70 66.5759 70 65.8962V56.913C70 56.2334 69.4492 55.6825 68.7695 55.6825ZM58.1325 8.78578C58.7359 8.18223 59.7179 8.18236 60.3211 8.78578L65.7068 14.1714C66.3102 14.7747 66.3102 15.7566 65.7068 16.3601L64.9631 17.1037L57.389 9.52935L58.1325 8.78578ZM56.1163 11.7372L62.755 18.3759L58.9077 19.1073L55.3847 15.5845L56.1163 11.7372ZM36.2784 35.5108L38.9818 38.2141L36.8074 40.3887L34.1041 37.6854L36.2784 35.5108ZM35.067 42.1288L29.8632 47.3325C29.1179 48.0779 27.9052 48.0779 27.1599 47.3325C26.7987 46.9716 26.6 46.4915 26.6 45.9809C26.6 45.4703 26.7989 44.9902 27.1599 44.6292L32.3635 39.4254L35.067 42.1288ZM18.2233 40.993L25.4566 33.7585C25.7988 33.4168 26.3547 33.4166 26.696 33.7579L30.6235 37.6855L25.4198 42.8893C24.0171 44.292 23.7697 46.4181 24.6753 48.0773L23.1246 49.6279C22.6442 50.1085 22.6442 50.8876 23.1246 51.3682C23.365 51.6086 23.6799 51.7287 23.9948 51.7287C24.3097 51.7287 24.6247 51.6086 24.8648 51.3682L26.4154 49.8176C27.0663 50.1728 27.7887 50.3516 28.5117 50.3516C29.6314 50.3516 30.7511 49.9254 31.6035 49.073L36.8071 43.8694L40.7343 47.7965C41.0759 48.138 41.0759 48.6939 40.7343 49.0352L33.9165 55.8531C32.1598 55.458 30.2913 55.7411 28.6954 56.7044C26.92 57.7761 25.1842 57.3457 23.4762 56.4682C21.2924 55.3434 18.6848 55.4222 16.5605 56.7044C16.0309 57.0239 15.4345 57.237 14.8222 57.3249C13.8607 53.6398 12.8951 46.3212 18.2233 40.993ZM67.539 64.6658H9.46094V58.3494C9.82134 58.4603 10.1683 58.6151 10.4932 58.8111C12.547 60.0507 15.0524 60.1653 17.19 59.1554C17.4095 59.052 17.6243 58.9372 17.8333 58.8111C19.1943 57.9888 20.9882 57.8362 22.3503 58.6562C24.7879 60.1235 27.4695 60.3188 29.9682 58.8111C31.4274 57.9294 33.3074 57.9325 34.7628 58.8111C37.0264 60.1773 39.8385 60.1773 42.1019 58.8111C43.5811 57.9184 45.4188 57.9184 46.8977 58.8111C49.1612 60.1773 51.9734 60.1773 54.2369 58.8111C55.716 57.9182 57.5536 57.9182 59.0325 58.8111C61.2961 60.1773 64.1082 60.1773 66.3718 58.8111C66.7378 58.5902 67.1308 58.422 67.5392 58.3097L67.539 64.6658Z"/>
</mask>
<path d="M68.7695 55.6825C67.4762 55.6825 66.2072 56.0358 65.1001 56.7042C63.621 57.5969 61.7834 57.5969 60.3043 56.7042C58.0408 55.3377 55.2286 55.3378 52.9651 56.7042C51.4861 57.597 49.6484 57.5969 48.1693 56.7042C45.9059 55.3378 43.0937 55.3378 40.8303 56.7042C39.4595 57.5316 37.7813 57.5906 36.3653 56.8844L42.4747 50.7752C43.7756 49.474 43.7756 47.3571 42.4747 46.0561L38.5475 42.1288L46.1684 34.5079C46.6489 34.0275 46.6489 33.2484 46.1684 32.7678C45.6879 32.2872 44.9088 32.2872 44.4282 32.7678L40.722 36.4739L38.0187 33.7705L54.0544 17.7347L56.7577 20.4382L52.0294 25.1665C51.5489 25.647 51.5488 26.4261 52.0294 26.9067C52.51 27.3873 53.2891 27.3872 53.7695 26.9067L59.1005 21.5757L64.2091 20.6045C64.8037 20.4914 65.3438 20.2058 65.7711 19.7784C65.7896 19.76 65.8073 19.74 65.8255 19.7207C65.8279 19.7183 65.8307 19.7163 65.8333 19.7139L67.447 18.1002C69.01 16.5372 69.0098 13.9941 67.447 12.4313L62.0614 7.04565C60.4984 5.48283 57.9553 5.48283 56.3924 7.04565L54.7786 8.6594C54.3261 9.10484 54.007 9.65584 53.8877 10.2831L52.9163 15.3925L32.3637 35.9452L28.4362 32.0177C27.136 30.7177 25.0193 30.7172 23.7169 32.0178L16.483 39.2528C10.7476 44.9881 11.2347 52.5359 12.1985 56.9329C12.0513 56.8639 11.906 56.7895 11.7647 56.7042C10.7065 56.0654 9.49416 55.7128 8.25865 55.6844C7.92544 55.6776 7.60724 55.803 7.37037 56.0345C7.13351 56.2662 7 56.5834 7 56.9146V65.8962C7 66.5759 7.55088 67.1267 8.23047 67.1267H68.7695C69.4492 67.1267 70 66.5759 70 65.8962V56.913C70 56.2334 69.4492 55.6825 68.7695 55.6825ZM58.1325 8.78578C58.7359 8.18223 59.7179 8.18236 60.3211 8.78578L65.7068 14.1714C66.3102 14.7747 66.3102 15.7566 65.7068 16.3601L64.9631 17.1037L57.389 9.52935L58.1325 8.78578ZM56.1163 11.7372L62.755 18.3759L58.9077 19.1073L55.3847 15.5845L56.1163 11.7372ZM36.2784 35.5108L38.9818 38.2141L36.8074 40.3887L34.1041 37.6854L36.2784 35.5108ZM35.067 42.1288L29.8632 47.3325C29.1179 48.0779 27.9052 48.0779 27.1599 47.3325C26.7987 46.9716 26.6 46.4915 26.6 45.9809C26.6 45.4703 26.7989 44.9902 27.1599 44.6292L32.3635 39.4254L35.067 42.1288ZM18.2233 40.993L25.4566 33.7585C25.7988 33.4168 26.3547 33.4166 26.696 33.7579L30.6235 37.6855L25.4198 42.8893C24.0171 44.292 23.7697 46.4181 24.6753 48.0773L23.1246 49.6279C22.6442 50.1085 22.6442 50.8876 23.1246 51.3682C23.365 51.6086 23.6799 51.7287 23.9948 51.7287C24.3097 51.7287 24.6247 51.6086 24.8648 51.3682L26.4154 49.8176C27.0663 50.1728 27.7887 50.3516 28.5117 50.3516C29.6314 50.3516 30.7511 49.9254 31.6035 49.073L36.8071 43.8694L40.7343 47.7965C41.0759 48.138 41.0759 48.6939 40.7343 49.0352L33.9165 55.8531C32.1598 55.458 30.2913 55.7411 28.6954 56.7044C26.92 57.7761 25.1842 57.3457 23.4762 56.4682C21.2924 55.3434 18.6848 55.4222 16.5605 56.7044C16.0309 57.0239 15.4345 57.237 14.8222 57.3249C13.8607 53.6398 12.8951 46.3212 18.2233 40.993ZM67.539 64.6658H9.46094V58.3494C9.82134 58.4603 10.1683 58.6151 10.4932 58.8111C12.547 60.0507 15.0524 60.1653 17.19 59.1554C17.4095 59.052 17.6243 58.9372 17.8333 58.8111C19.1943 57.9888 20.9882 57.8362 22.3503 58.6562C24.7879 60.1235 27.4695 60.3188 29.9682 58.8111C31.4274 57.9294 33.3074 57.9325 34.7628 58.8111C37.0264 60.1773 39.8385 60.1773 42.1019 58.8111C43.5811 57.9184 45.4188 57.9184 46.8977 58.8111C49.1612 60.1773 51.9734 60.1773 54.2369 58.8111C55.716 57.9182 57.5536 57.9182 59.0325 58.8111C61.2961 60.1773 64.1082 60.1773 66.3718 58.8111C66.7378 58.5902 67.1308 58.422 67.5392 58.3097L67.539 64.6658Z" fill="#4DBD3C"/>
<path d="M68.7695 55.6825C67.4762 55.6825 66.2072 56.0358 65.1001 56.7042C63.621 57.5969 61.7834 57.5969 60.3043 56.7042C58.0408 55.3377 55.2286 55.3378 52.9651 56.7042C51.4861 57.597 49.6484 57.5969 48.1693 56.7042C45.9059 55.3378 43.0937 55.3378 40.8303 56.7042C39.4595 57.5316 37.7813 57.5906 36.3653 56.8844L42.4747 50.7752C43.7756 49.474 43.7756 47.3571 42.4747 46.0561L38.5475 42.1288L46.1684 34.5079C46.6489 34.0275 46.6489 33.2484 46.1684 32.7678C45.6879 32.2872 44.9088 32.2872 44.4282 32.7678L40.722 36.4739L38.0187 33.7705L54.0544 17.7347L56.7577 20.4382L52.0294 25.1665C51.5489 25.647 51.5488 26.4261 52.0294 26.9067C52.51 27.3873 53.2891 27.3872 53.7695 26.9067L59.1005 21.5757L64.2091 20.6045C64.8037 20.4914 65.3438 20.2058 65.7711 19.7784C65.7896 19.76 65.8073 19.74 65.8255 19.7207C65.8279 19.7183 65.8307 19.7163 65.8333 19.7139L67.447 18.1002C69.01 16.5372 69.0098 13.9941 67.447 12.4313L62.0614 7.04565C60.4984 5.48283 57.9553 5.48283 56.3924 7.04565L54.7786 8.6594C54.3261 9.10484 54.007 9.65584 53.8877 10.2831L52.9163 15.3925L32.3637 35.9452L28.4362 32.0177C27.136 30.7177 25.0193 30.7172 23.7169 32.0178L16.483 39.2528C10.7476 44.9881 11.2347 52.5359 12.1985 56.9329C12.0513 56.8639 11.906 56.7895 11.7647 56.7042C10.7065 56.0654 9.49416 55.7128 8.25865 55.6844C7.92544 55.6776 7.60724 55.803 7.37037 56.0345C7.13351 56.2662 7 56.5834 7 56.9146V65.8962C7 66.5759 7.55088 67.1267 8.23047 67.1267H68.7695C69.4492 67.1267 70 66.5759 70 65.8962V56.913C70 56.2334 69.4492 55.6825 68.7695 55.6825ZM58.1325 8.78578C58.7359 8.18223 59.7179 8.18236 60.3211 8.78578L65.7068 14.1714C66.3102 14.7747 66.3102 15.7566 65.7068 16.3601L64.9631 17.1037L57.389 9.52935L58.1325 8.78578ZM56.1163 11.7372L62.755 18.3759L58.9077 19.1073L55.3847 15.5845L56.1163 11.7372ZM36.2784 35.5108L38.9818 38.2141L36.8074 40.3887L34.1041 37.6854L36.2784 35.5108ZM35.067 42.1288L29.8632 47.3325C29.1179 48.0779 27.9052 48.0779 27.1599 47.3325C26.7987 46.9716 26.6 46.4915 26.6 45.9809C26.6 45.4703 26.7989 44.9902 27.1599 44.6292L32.3635 39.4254L35.067 42.1288ZM18.2233 40.993L25.4566 33.7585C25.7988 33.4168 26.3547 33.4166 26.696 33.7579L30.6235 37.6855L25.4198 42.8893C24.0171 44.292 23.7697 46.4181 24.6753 48.0773L23.1246 49.6279C22.6442 50.1085 22.6442 50.8876 23.1246 51.3682C23.365 51.6086 23.6799 51.7287 23.9948 51.7287C24.3097 51.7287 24.6247 51.6086 24.8648 51.3682L26.4154 49.8176C27.0663 50.1728 27.7887 50.3516 28.5117 50.3516C29.6314 50.3516 30.7511 49.9254 31.6035 49.073L36.8071 43.8694L40.7343 47.7965C41.0759 48.138 41.0759 48.6939 40.7343 49.0352L33.9165 55.8531C32.1598 55.458 30.2913 55.7411 28.6954 56.7044C26.92 57.7761 25.1842 57.3457 23.4762 56.4682C21.2924 55.3434 18.6848 55.4222 16.5605 56.7044C16.0309 57.0239 15.4345 57.237 14.8222 57.3249C13.8607 53.6398 12.8951 46.3212 18.2233 40.993ZM67.539 64.6658H9.46094V58.3494C9.82134 58.4603 10.1683 58.6151 10.4932 58.8111C12.547 60.0507 15.0524 60.1653 17.19 59.1554C17.4095 59.052 17.6243 58.9372 17.8333 58.8111C19.1943 57.9888 20.9882 57.8362 22.3503 58.6562C24.7879 60.1235 27.4695 60.3188 29.9682 58.8111C31.4274 57.9294 33.3074 57.9325 34.7628 58.8111C37.0264 60.1773 39.8385 60.1773 42.1019 58.8111C43.5811 57.9184 45.4188 57.9184 46.8977 58.8111C49.1612 60.1773 51.9734 60.1773 54.2369 58.8111C55.716 57.9182 57.5536 57.9182 59.0325 58.8111C61.2961 60.1773 64.1082 60.1773 66.3718 58.8111C66.7378 58.5902 67.1308 58.422 67.5392 58.3097L67.539 64.6658Z" stroke="#4DBD3C" stroke-width="1.2" mask="url(#path-2-outside-1_963_302)"/>
<path d="M48.4172 28.8134C47.8578 29.1844 47.7078 29.9618 48.0776 30.5188C48.4483 31.0772 49.2259 31.231 49.783 30.8596C50.3404 30.488 50.4953 29.7105 50.1238 29.1529C49.749 28.596 48.9766 28.4423 48.4172 28.8134Z" fill="#4DBD3C"/>
</g>
</g>
<defs>
<clipPath id="clip0_963_302">
<rect width="63" height="63" fill="white" transform="translate(7 5)"/>
</clipPath>
</defs>
</svg>
