<svg width="75" height="75" viewBox="0 0 75 75" fill="none" xmlns="http://www.w3.org/2000/svg">
<path d="M48.4375 26.5625L26.5625 48.4375M29.6875 29.6875H29.7188M45.3125 45.3125H45.3438M65.625 37.5C65.625 53.0331 53.0331 65.625 37.5 65.625C21.967 65.625 9.375 53.0331 9.375 37.5C9.375 21.967 21.967 9.375 37.5 9.375C53.0331 9.375 65.625 21.967 65.625 37.5ZM31.25 29.6875C31.25 30.5504 30.5504 31.25 29.6875 31.25C28.8246 31.25 28.125 30.5504 28.125 29.6875C28.125 28.8246 28.8246 28.125 29.6875 28.125C30.5504 28.125 31.25 28.8246 31.25 29.6875ZM46.875 45.3125C46.875 46.1753 46.1753 46.875 45.3125 46.875C44.4497 46.875 43.75 46.1753 43.75 45.3125C43.75 44.4497 44.4497 43.75 45.3125 43.75C46.1753 43.75 46.875 44.4497 46.875 45.3125Z" stroke="#4DBD3C" stroke-width="5.2" stroke-linecap="square"/>
</svg>
