<svg width="75" height="75" viewBox="0 0 75 75" fill="none" xmlns="http://www.w3.org/2000/svg">
<path d="M43.75 32.8125C43.75 37.1272 36.7544 40.625 28.125 40.625C19.4956 40.625 12.5 37.1272 12.5 32.8125M43.75 32.8125C43.75 28.4978 36.7544 25 28.125 25C19.4956 25 12.5 28.4978 12.5 32.8125M43.75 32.8125V45.3125M12.5 32.8125V45.3125M43.75 45.3125C43.75 49.6272 36.7544 53.125 28.125 53.125C19.4956 53.125 12.5 49.6272 12.5 45.3125M43.75 45.3125V57.8125C43.75 62.1272 36.7544 65.625 28.125 65.625C19.4956 65.625 12.5 62.1272 12.5 57.8125V45.3125M62.5 17.1875C62.5 12.8728 55.5044 9.375 46.875 9.375C40.6903 9.375 35.345 11.1717 32.8125 13.778M62.5 17.1875C62.5 20.0792 59.3578 22.604 54.6875 23.9548M62.5 17.1875V43.75C62.5 46.0634 59.3578 48.0831 54.6875 49.1637M62.5 31.25C62.5 33.6147 59.2172 35.6725 54.3747 36.7344" stroke="#4DBD3C" stroke-width="5.2" stroke-linecap="square"/>
</svg>
