<svg width="75" height="75" viewBox="0 0 75 75" fill="none" xmlns="http://www.w3.org/2000/svg">
<path d="M9.375 28.125H65.625M28.125 46.875L34.375 53.125L46.875 40.625M21.875 9.375V15.625M53.125 9.375V15.625M19.375 65.625H55.625C59.1253 65.625 60.8756 65.625 62.2125 64.9437C63.3884 64.3447 64.3447 63.3884 64.9437 62.2125C65.625 60.8756 65.625 59.1253 65.625 55.625V25.625C65.625 22.1247 65.625 20.3745 64.9437 19.0376C64.3447 17.8615 63.3884 16.9054 62.2125 16.3062C60.8756 15.625 59.1253 15.625 55.625 15.625H19.375C15.8747 15.625 14.1245 15.625 12.7876 16.3062C11.6115 16.9054 10.6554 17.8615 10.0562 19.0376C9.375 20.3745 9.375 22.1247 9.375 25.625V55.625C9.375 59.1253 9.375 60.8756 10.0562 62.2125C10.6554 63.3884 11.6115 64.3447 12.7876 64.9437C14.1245 65.625 15.8747 65.625 19.375 65.625Z" stroke="#4DBD3C" stroke-width="5.2" stroke-linecap="square"/>
</svg>
