<svg width="75" height="75" viewBox="0 0 75 75" fill="none" xmlns="http://www.w3.org/2000/svg">
<path d="M37.5 39.0624C40.9519 39.0624 43.75 36.2643 43.75 32.8124C43.75 29.3606 40.9519 26.5624 37.5 26.5624C34.0481 26.5624 31.25 29.3606 31.25 32.8124C31.25 36.2643 34.0481 39.0624 37.5 39.0624ZM37.5 39.0624V48.4374M62.5 37.4999C62.5 51.4409 45.4375 61.5427 39.5044 64.6343C38.8628 64.9687 38.5419 65.1359 38.0969 65.2224C37.75 65.2899 37.25 65.2899 36.9031 65.2224C36.4581 65.1359 36.1372 64.9687 35.4956 64.6343C29.5624 61.5427 12.5 51.4409 12.5 37.4999V25.6799C12.5 23.1814 12.5 21.9322 12.9086 20.8584C13.2696 19.9097 13.8562 19.0633 14.6177 18.3922C15.4797 17.6325 16.6494 17.1939 18.9887 16.3166L35.7444 10.0333C36.3941 9.78964 36.7188 9.66782 37.0531 9.61951C37.3494 9.5767 37.6506 9.5767 37.9469 9.61951C38.2812 9.66782 38.6059 9.78964 39.2556 10.0333L56.0112 16.3166C58.3506 17.1939 59.5203 17.6325 60.3822 18.3922C61.1437 19.0633 61.7303 19.9097 62.0912 20.8584C62.5 21.9322 62.5 23.1814 62.5 25.6799V37.4999Z" stroke="#4DBD3C" stroke-width="5.2" stroke-linecap="square"/>
</svg>
