<svg width="75" height="75" viewBox="0 0 75 75" fill="none" xmlns="http://www.w3.org/2000/svg">
<path d="M56.25 9.375V65.625M56.25 65.625L46.875 56.25M56.25 65.625L65.625 56.25M21.875 50C20.1491 50 18.75 51.3991 18.75 53.125C18.75 54.8509 20.1491 56.25 21.875 56.25C23.6009 56.25 25 54.8509 25 53.125C25 51.3991 23.6009 50 21.875 50ZM21.875 50V37.5M21.875 53.125L21.8971 53.1472M34.375 53.125C34.375 60.0284 28.7786 65.625 21.875 65.625C14.9714 65.625 9.375 60.0284 9.375 53.125C9.375 49.955 10.5551 47.0603 12.5 44.8569V18.7505C12.5 13.5729 16.6973 9.37553 21.875 9.37553C27.0527 9.37553 31.25 13.5729 31.25 18.7505V44.8569C33.195 47.0603 34.375 49.955 34.375 53.125Z" stroke="#4DBD3C" stroke-width="5.2" stroke-linecap="square"/>
</svg>
