<svg width="75" height="75" viewBox="0 0 75 75" fill="none" xmlns="http://www.w3.org/2000/svg">
<path d="M37.5 40.625C34.0481 40.625 31.25 43.4231 31.25 46.875C31.25 50.3269 34.0481 53.125 37.5 53.125C40.9519 53.125 43.75 50.3269 43.75 46.875C43.75 43.4231 40.9519 40.625 37.5 40.625ZM37.5 40.625V18.75M25 25H25.0313M50 25H50.0313M56.25 37.5H56.2813M18.75 37.5H18.7813M65.625 37.5C65.625 53.0331 53.0331 65.625 37.5 65.625C21.967 65.625 9.375 53.0331 9.375 37.5C9.375 21.967 21.967 9.375 37.5 9.375C53.0331 9.375 65.625 21.967 65.625 37.5Z" stroke="#4DBD3C" stroke-width="5.2" stroke-linecap="square"/>
</svg>
