<svg width="75" height="75" viewBox="0 0 75 75" fill="none" xmlns="http://www.w3.org/2000/svg">
<path d="M40.625 9.375H25.625C22.1247 9.375 20.3745 9.375 19.0376 10.0562C17.8615 10.6554 16.9054 11.6115 16.3062 12.7876C15.625 14.1245 15.625 15.8747 15.625 19.375V55.625C15.625 59.1253 15.625 60.8756 16.3062 62.2125C16.9054 63.3884 17.8615 64.3447 19.0376 64.9437C20.3745 65.625 22.1247 65.625 25.625 65.625H37.5M40.625 9.375L59.375 28.125M40.625 9.375V23.125C40.625 24.8752 40.625 25.7502 40.9656 26.4187C41.2653 27.0067 41.7431 27.4848 42.3312 27.7844C42.9997 28.125 43.8747 28.125 45.625 28.125H59.375M59.375 28.125V31.25M65.625 47.5313C65.4119 47.5441 64.7991 47.5313 64.5834 47.5313C61.3819 47.5313 58.4616 46.1012 56.25 43.75C54.0384 46.1012 51.1181 47.5309 47.9166 47.5309C47.7009 47.5309 47.0888 47.5441 46.8756 47.5313C46.8756 47.5313 46.875 49.9547 46.875 51.2434C46.875 58.1628 50.8587 63.9766 56.25 65.625C61.6413 63.9766 65.625 58.1628 65.625 51.2434C65.625 49.9547 65.625 47.5313 65.625 47.5313Z" stroke="#4DBD3C" stroke-width="5.2" stroke-linecap="square"/>
</svg>
