<svg width="75" height="75" viewBox="0 0 75 75" fill="none" xmlns="http://www.w3.org/2000/svg">
<path d="M67.1695 50.2526C68.6505 46.9135 69.2505 43.2212 68.9049 39.5751C68.8362 38.8499 68.3874 38.2166 67.7272 37.9128C66.4627 37.331 65.1466 36.8778 63.8012 36.5552C63.9787 35.3337 64.0722 34.0855 64.0722 32.8154C64.0722 18.5808 52.5236 7 38.3284 7C24.1333 7 12.5849 18.5807 12.5849 32.8153C12.5849 32.9394 12.5879 33.0629 12.5897 33.1865C12.5883 33.2177 12.5849 33.2483 12.5849 33.2798C12.5849 33.3325 12.5888 33.3843 12.5928 33.4358C12.6092 34.1296 12.653 34.8166 12.7232 35.496C10.4734 35.7607 8.30389 36.3041 6.27777 37.1191C5.49051 37.4359 4.98151 38.2089 5.00051 39.0593C5.09764 43.4243 6.40902 47.8902 8.7924 51.9743C11.2254 56.1436 14.7302 59.8159 18.9277 62.5946C23.1252 65.3733 27.87 67.162 32.6493 67.7673C33.8766 67.9228 35.0987 68 36.3073 68C39.7089 68 43.0009 67.3884 45.9826 66.1891C46.2586 66.078 46.4995 65.9099 46.6962 65.7031C49.6928 66.2994 52.749 66.6032 55.8242 66.6032C58.2325 66.6032 60.6532 66.4176 63.0648 66.0421C64.1758 65.8691 64.9367 64.8257 64.7642 63.7116C64.5917 62.5975 63.551 61.8345 62.4402 62.0075C58.9875 62.545 55.5167 62.6537 52.0967 62.3541C54.9747 61.772 57.7157 60.5892 60.13 58.8694C63.2074 56.6774 65.6417 53.6975 67.1695 50.2526ZM58.2436 24.299C59.1765 26.4766 59.7662 28.7901 59.9435 31.2399H49.9022C49.7933 28.7903 49.434 26.4766 48.8418 24.299H58.2436ZM59.8561 35.3228C59.6818 36.8198 59.3526 38.3037 58.8831 39.7078C58.7772 39.6908 58.6696 39.6779 58.559 39.6779H49.2186C49.5207 38.1808 49.7293 36.8198 49.8416 35.3228H59.8561ZM55.9395 20.2162H47.4612C46.0664 16.8137 44.1164 13.8644 41.6999 11.399C47.5468 12.3185 52.6253 15.589 55.9395 20.2162ZM30.8338 31.2399C30.9657 28.7903 31.4004 26.4766 32.1022 24.299H44.6117C45.2878 26.4766 45.7028 28.7901 45.8271 31.2399H30.8338ZM45.7546 35.3228C45.6246 36.8198 45.3831 38.3168 45.0376 39.6779H31.6658C31.6389 39.6779 31.6117 39.6492 31.5847 39.6336C31.2522 38.2366 31.0222 36.8198 30.8979 35.3228H45.7546ZM38.3454 13.81C40.2168 15.604 41.7821 17.7665 42.9928 20.2162H33.7476C34.9604 17.7664 36.5122 15.6074 38.3454 13.81ZM35.0073 11.3642C32.8147 13.6366 30.9567 16.4086 29.5651 19.4868C29.4578 19.7237 29.3544 19.9439 29.253 20.2161H20.718C24.0415 15.589 29.1393 12.2731 35.0073 11.3642ZM18.4137 24.299H27.8504C27.2377 26.4766 26.8693 28.9263 26.7567 31.2399H16.7138C16.891 28.7903 17.4808 26.4766 18.4137 24.299ZM27.0415 37.4511C24.6235 36.5076 22.1224 35.8593 19.611 35.5412C18.6703 35.422 17.7327 35.3517 16.8017 35.324L16.8015 35.3228H26.8134C26.8667 36.0033 26.9438 36.7477 27.0415 37.4511ZM26.5848 56.5777L29.9794 58.8208C33.0088 60.8226 36.2288 62.4486 39.5738 63.688C33.5483 64.5302 26.8625 62.9552 21.1709 59.1875C14.3385 54.6645 9.83777 47.5796 9.1564 40.4178C15.9914 38.2318 24.257 39.5979 31.0896 44.1208C37.1469 48.1306 41.3689 54.1544 42.7244 60.4599C39.0437 59.2738 35.5088 57.5849 32.2201 55.4117L28.8253 53.1684C27.8865 52.5481 26.6238 52.8083 26.0052 53.7497C25.3864 54.691 25.646 55.9572 26.5848 56.5777ZM41.3741 48.2093C40.1602 46.6162 38.7818 45.1217 37.2668 43.7607H43.7127C43.0641 45.3939 42.2798 46.8337 41.3741 48.2093ZM44.6616 53.5996C44.3873 53.019 44.0903 52.4458 43.7747 51.8777C45.0772 50.1471 46.2112 48.2179 47.1358 46.1408C47.4813 45.3644 47.7961 44.5773 48.0796 43.7608H57.0438C54.3196 48.3879 49.9116 51.9878 44.6616 53.5996ZM57.7718 55.5412C54.4568 57.9027 50.4357 58.952 46.4751 58.6186C46.3726 58.2166 46.2589 57.8156 46.1372 57.4156C54.0988 54.8685 60.3903 48.5361 62.8957 40.537C63.5799 40.7018 64.2571 40.9097 64.9231 41.161C65.062 46.8245 62.3905 52.2509 57.7718 55.5412Z" fill="#4DBD3C"/>
</svg>
