<svg width="52" height="58" viewBox="0 0 52 58" fill="none" xmlns="http://www.w3.org/2000/svg">
<path d="M23.1668 54.5H7.86683C6.28002 54.5 5.4866 54.5 4.88052 54.1912C4.3474 53.9195 3.91396 53.4862 3.6423 52.953C3.3335 52.3469 3.3335 51.5536 3.3335 49.9667V45.1049C3.3335 43.3041 3.3335 42.4034 3.46944 41.6525C4.10096 38.1641 6.83102 35.4342 10.3193 34.8027C10.5372 34.7633 10.7673 34.7352 11.0281 34.7154C11.6657 34.6667 11.9845 34.6423 12.4104 34.674C12.853 34.7072 13.1006 34.7508 13.5277 34.8712C13.9387 34.9871 14.679 35.3226 16.1595 35.9932C17.4705 36.5871 18.8703 37.0195 20.3335 37.2648M48.3059 38.0774C48.1126 38.089 47.918 38.095 47.7225 38.095C44.8197 38.095 42.172 36.7985 40.1668 34.6667C38.1617 36.7985 35.5139 38.0947 32.6112 38.0947C32.4157 38.0947 32.221 38.0888 32.0278 38.0771C31.7921 39.1583 31.6668 40.2922 31.6668 41.4607C31.6668 47.7343 35.2788 53.0054 40.1668 54.5C45.0549 53.0054 48.6668 47.7343 48.6668 41.4607C48.6668 40.2922 48.5416 39.1583 48.3059 38.0774ZM34.5002 14.8333C34.5002 21.0926 29.4259 26.1667 23.1668 26.1667C16.9076 26.1667 11.8335 21.0926 11.8335 14.8333C11.8335 8.5741 16.9076 3.5 23.1668 3.5C29.4259 3.5 34.5002 8.5741 34.5002 14.8333Z" stroke="#4DBD3C" stroke-width="5.2" stroke-linecap="square"/>
</svg>
