<svg width="80" height="80" viewBox="0 0 80 80" fill="none" xmlns="http://www.w3.org/2000/svg">
<path d="M43.3346 10H27.3346C23.601 10 21.7341 10 20.308 10.7266C19.0536 11.3658 18.0337 12.3856 17.3946 13.6401C16.668 15.0661 16.668 16.933 16.668 20.6667V59.3333C16.668 63.067 16.668 64.934 17.3946 66.36C18.0337 67.6143 19.0536 68.6343 20.308 69.2733C21.7341 70 23.601 70 27.3346 70H40.0013M43.3346 10L63.3346 30M43.3346 10V24.6667C43.3346 26.5335 43.3346 27.4669 43.698 28.18C44.0176 28.8072 44.5273 29.3171 45.1546 29.6367C45.8676 30 46.801 30 48.668 30H63.3346M63.3346 30V33.3333M70.0013 50.7C69.774 50.7137 69.1203 50.7 68.8903 50.7C65.4753 50.7 62.3603 49.1747 60.0013 46.6667C57.6423 49.1747 54.5273 50.6997 51.1123 50.6997C50.8823 50.6997 50.2293 50.7137 50.002 50.7C50.002 50.7 50.0013 53.285 50.0013 54.6597C50.0013 62.0403 54.2506 68.2417 60.0013 70C65.752 68.2417 70.0013 62.0403 70.0013 54.6597C70.0013 53.285 70.0013 50.7 70.0013 50.7Z" stroke="#4DBD3C" stroke-width="5.2" stroke-linecap="square"/>
</svg>
