<svg width="52" height="52" viewBox="0 0 52 52" fill="none" xmlns="http://www.w3.org/2000/svg">
<circle cx="26" cy="26" r="26" fill="#28A8E9"/>
<path d="M33.3265 18.3492C33.3265 18.3492 35.2507 17.6177 35.0903 19.3942C35.0368 20.1258 34.5559 22.6861 34.1817 25.4555L32.8989 33.6591C32.8989 33.6591 32.792 34.8609 31.83 35.0699C30.8679 35.2789 29.4248 34.3384 29.1575 34.1293C28.9437 33.9727 25.1489 31.6212 23.8126 30.4718C23.4385 30.1582 23.0109 29.5312 23.8661 28.7996L29.4782 23.5744C30.1196 22.9474 30.761 21.4843 28.0885 23.2609L20.6057 28.2248C20.6057 28.2248 19.7506 28.7474 18.1471 28.2771L14.6729 27.2321C14.6729 27.2321 13.3902 26.4483 15.5816 25.6645C20.9264 23.2086 27.5006 20.7005 33.3265 18.3492Z" fill="white"/>
</svg>
