<svg width="26" height="26" viewBox="0 0 26 26" fill="none" xmlns="http://www.w3.org/2000/svg">
<path d="M11.9163 22.75H6.06634C5.45962 22.75 5.15625 22.75 4.92452 22.6319C4.72068 22.528 4.55495 22.3624 4.45108 22.1585C4.33301 21.9268 4.33301 21.6234 4.33301 21.0167V19.1578C4.33301 18.4692 4.33301 18.1248 4.38499 17.8377C4.62645 16.5039 5.6703 15.4601 7.00405 15.2187C7.08738 15.2036 7.17535 15.1929 7.27507 15.1853C7.51886 15.1667 7.64076 15.1574 7.80358 15.1695C7.97282 15.1822 8.06747 15.1988 8.23081 15.2449C8.38795 15.2892 8.67099 15.4175 9.23706 15.6739C9.73833 15.901 10.2736 16.0663 10.833 16.1601M21.5283 16.4708C21.4544 16.4752 21.38 16.4775 21.3053 16.4775C20.1954 16.4775 19.183 15.9818 18.4163 15.1667C17.6497 15.9818 16.6373 16.4774 15.5274 16.4774C15.4527 16.4774 15.3782 16.4751 15.3044 16.4707C15.2142 16.8841 15.1663 17.3176 15.1663 17.7644C15.1663 20.1631 16.5474 22.1785 18.4163 22.75C20.2853 22.1785 21.6663 20.1631 21.6663 17.7644C21.6663 17.3176 21.6185 16.8841 21.5283 16.4708ZM16.2497 7.58333C16.2497 9.97657 14.3095 11.9167 11.9163 11.9167C9.52311 11.9167 7.58301 9.97657 7.58301 7.58333C7.58301 5.1901 9.52311 3.25 11.9163 3.25C14.3095 3.25 16.2497 5.1901 16.2497 7.58333Z" stroke="#4DBD3C" stroke-width="2" stroke-linecap="square"/>
</svg>
