<svg width="80" height="80" viewBox="0 0 80 80" fill="none" xmlns="http://www.w3.org/2000/svg">
<path d="M74.8255 69.349C74.1244 66.9625 72.6112 64.8136 70.565 63.2984C69.1872 62.2781 67.6338 61.5706 65.9799 61.2006C65.2007 53.5363 58.4819 47.5279 50.3359 47.5279C47.0979 47.5279 43.9437 48.4966 41.3121 50.2772C41.3489 46.1649 40.6097 41.9678 39.2916 38.998C38.7914 37.8709 37.4388 37.3485 36.2702 37.831L31.7429 39.7008L29.6793 35.0512C29.1791 33.9241 27.8266 33.4016 26.658 33.8842L26.2003 34.0732L18.024 15.6511C19.0918 14.8091 19.9289 13.7172 20.4558 12.4477C21.2764 10.4709 21.2497 8.30398 20.3809 6.34621C20.1406 5.80512 19.6873 5.37799 19.1207 5.15909C18.5543 4.9402 17.9206 4.94745 17.3596 5.17922L6.39611 9.70749C5.22765 10.1901 4.68608 11.4951 5.18638 12.6222C6.05521 14.5799 7.66229 16.0939 9.71169 16.8856C10.7055 17.2695 11.7456 17.4612 12.785 17.4612C13.1216 17.4612 13.4579 17.4385 13.7928 17.3984L21.9693 35.8211L21.5116 36.0101C20.9505 36.2417 20.5079 36.6791 20.281 37.2256C20.0541 37.7722 20.0616 38.3834 20.3019 38.9245L22.3655 43.5743L17.8382 45.4442C17.2772 45.6758 16.8346 46.1133 16.6077 46.6597C16.3807 47.2063 16.3883 47.8175 16.6285 48.3588C18.131 51.744 21.3485 55.7051 25.0254 58.6961C25.6142 59.1752 26.3252 59.7163 27.1173 60.2464C24.9969 62.5113 23.7015 65.5083 23.7015 68.7935C23.7015 69.704 23.8025 70.6152 24.0018 71.5011C24.461 73.5431 26.3338 75 28.4998 75H70.3974C71.84 75 73.199 74.3476 74.0689 73.2374C74.9388 72.1273 75.2189 70.6878 74.8255 69.349ZM11.4223 12.7636C11.3014 12.717 11.1841 12.6644 11.0705 12.6067L16.3082 10.4435C16.273 10.5626 16.2313 10.6807 16.183 10.7974C15.8194 11.6732 15.1241 12.3601 14.2249 12.7315C13.3258 13.1028 12.3304 13.1142 11.4223 12.7636ZM25.4387 39.2177L26.3539 38.8397L27.5117 41.4484L26.5964 41.8264L25.4387 39.2177ZM21.9303 48.5836L35.8012 42.8544C36.5203 45.4448 36.8488 48.6986 36.6567 51.7229C36.5392 53.5745 36.2488 55.0097 35.9008 56.0677C34.1549 56.1989 32.5038 56.6575 31.0122 57.3811C30.1342 56.8954 29.1204 56.219 27.9924 55.3014C25.5912 53.3484 23.377 50.8733 21.9303 48.5836ZM28.4998 70.5598C28.3718 69.9906 28.3042 69.3996 28.3042 68.7932C28.3042 64.1938 32.1693 60.4653 36.937 60.4653C37.3253 60.4653 37.7075 60.4905 38.082 60.5387C38.7989 60.6312 39.4927 60.2299 39.7035 59.5624C41.0916 55.1667 45.3253 51.9679 50.3359 51.9679C56.4756 51.9679 61.4528 56.7693 61.4528 62.6922C61.4528 63.0545 61.4337 63.4125 61.3969 63.7653C61.3052 64.6431 62.0345 65.3791 62.9483 65.3454C63.044 65.3418 63.1404 65.3401 63.237 65.3401C66.6428 65.3401 69.5124 67.5475 70.3974 70.5596L28.4998 70.5598Z" fill="#4DBD3C"/>
</svg>
