<svg width="52" height="52" viewBox="0 0 52 52" fill="none" xmlns="http://www.w3.org/2000/svg">
<circle cx="26" cy="26" r="26" fill="#25D366"/>
<path d="M33.3689 18.6265C32.4107 17.6633 31.2693 16.8997 30.0113 16.3801C28.7533 15.8605 27.404 15.5953 26.0419 15.6001C20.335 15.6001 15.6837 20.2281 15.6837 25.9064C15.6837 27.7264 16.1645 29.4944 17.0634 31.0544L15.6001 36.4L21.0875 34.9648C22.6031 35.7864 24.3068 36.2232 26.0419 36.2232C31.7488 36.2232 36.4001 31.5952 36.4001 25.9168C36.4001 23.1608 35.3235 20.5713 33.3689 18.6265ZM26.0419 34.476C24.495 34.476 22.9794 34.06 21.652 33.28L21.3384 33.0928L18.0773 33.9456L18.9448 30.784L18.7358 30.4616C17.8763 29.0961 17.42 27.5177 17.4188 25.9064C17.4188 21.1848 21.2861 17.3369 26.0314 17.3369C28.3309 17.3369 30.4946 18.2313 32.1147 19.8537C32.9168 20.6482 33.5526 21.5932 33.985 22.634C34.4174 23.6748 34.6379 24.7906 34.6337 25.9168C34.6546 30.6384 30.7872 34.476 26.0419 34.476ZM30.7663 28.0696C30.5051 27.9448 29.2298 27.3208 28.9999 27.2272C28.7595 27.144 28.5923 27.1024 28.4146 27.352C28.2369 27.612 27.7456 28.1944 27.5993 28.3608C27.453 28.5376 27.2961 28.5584 27.0349 28.4232C26.7735 28.2984 25.9374 28.0176 24.9549 27.144C24.1814 26.4576 23.6692 25.6152 23.5125 25.3552C23.3661 25.0952 23.4916 24.96 23.6274 24.8248C23.7424 24.7104 23.8887 24.5232 24.0142 24.3776C24.1396 24.232 24.1919 24.1176 24.2755 23.9512C24.3591 23.7744 24.3173 23.6288 24.2546 23.504C24.1919 23.3792 23.6692 22.1104 23.4602 21.5904C23.2511 21.0912 23.0317 21.1536 22.8749 21.1432H22.3732C22.1955 21.1432 21.9237 21.2056 21.6833 21.4656C21.4534 21.7256 20.7844 22.3496 20.7844 23.6184C20.7844 24.8872 21.7147 26.1144 21.8401 26.2808C21.9655 26.4576 23.6692 29.0576 26.2614 30.1704C26.8781 30.4408 27.3589 30.5968 27.7351 30.7112C28.3518 30.9088 28.9163 30.8776 29.3657 30.8152C29.8674 30.7424 30.9022 30.1912 31.1113 29.588C31.3307 28.9848 31.3307 28.4752 31.2576 28.3608C31.1844 28.2464 31.0277 28.1944 30.7663 28.0696Z" fill="white"/>
</svg>
