<svg width="80" height="80" viewBox="0 0 80 80" fill="none" xmlns="http://www.w3.org/2000/svg">
<path d="M10 70V55L25 40L40 55L25 70H10Z" stroke="#4DBD3C" stroke-width="5.2" stroke-linecap="round"/>
<path d="M32.5 47.5L52 28" stroke="#4DBD3C" stroke-width="5.2" stroke-linecap="square" stroke-linejoin="round"/>
<path d="M55.0022 10L70.0022 25L68.5022 26.5C67.5184 27.4869 66.3495 28.2699 65.0625 28.8042C63.7755 29.3385 62.3957 29.6135 61.0022 29.6135C59.6087 29.6135 58.2289 29.3385 56.9419 28.8042C55.6549 28.2699 54.486 27.4869 53.5022 26.5C52.5153 25.5162 51.7322 24.3473 51.198 23.0603C50.6637 21.7733 50.3887 20.3935 50.3887 19C50.3887 17.6065 50.6637 16.2267 51.198 14.9397C51.7322 13.6527 52.5153 12.4838 53.5022 11.5L55.0022 10Z" stroke="#4DBD3C" stroke-width="5.2" stroke-linecap="round"/>
</svg>
