<svg width="80" height="80" viewBox="0 0 80 80" fill="none" xmlns="http://www.w3.org/2000/svg">
<path d="M46.8889 70V50.1319H33.1111V70M64.1111 36.224V54.1055C64.1111 59.6689 64.1111 62.4508 62.9848 64.5757C61.9942 66.4449 60.4135 67.9648 58.4691 68.9172C56.2585 70 53.3651 70 47.5778 70H32.4222C26.635 70 23.7414 70 21.531 68.9172C19.5866 67.9648 18.0058 66.4449 17.0152 64.5757C15.8889 62.4508 15.8889 59.6689 15.8889 54.1055V35.7273M71 40.1978L52.2856 20.2103C48.0293 15.6646 45.9014 13.3917 43.3948 12.5526C41.1938 11.8156 38.7979 11.8158 36.5965 12.5531C34.0904 13.3926 31.9628 15.6657 27.7073 20.212L9 40.1978" stroke="#4DBD3C" stroke-width="5.2" stroke-linecap="square"/>
</svg>
