<svg width="80" height="80" viewBox="0 0 80 80" fill="none" xmlns="http://www.w3.org/2000/svg">
<path d="M10 40H70M23.3333 40V46.6667M56.6667 40V46.6667M26.6667 23.3333H26C20.3995 23.3333 17.5992 23.3333 15.4601 24.4233C13.5785 25.382 12.0487 26.9118 11.0899 28.7934C10 30.9325 10 33.7327 10 39.3333V54C10 59.6007 10 62.4007 11.0899 64.54C12.0487 66.4217 13.5785 67.9513 15.4601 68.91C17.5992 70 20.3995 70 26 70H54C59.6007 70 62.4007 70 64.54 68.91C66.4217 67.9513 67.9513 66.4217 68.91 64.54C70 62.4007 70 59.6007 70 54V39.3333C70 33.7327 70 30.9325 68.91 28.7934C67.9513 26.9118 66.4217 25.382 64.54 24.4233C62.4007 23.3333 59.6007 23.3333 54 23.3333H53.3333M26.6667 23.3333V20C26.6667 16.8937 26.6667 15.3406 27.1741 14.1154C27.8508 12.4819 29.1486 11.1841 30.7821 10.5075C32.0073 10 33.5603 10 36.6667 10H43.3333C46.4397 10 47.9927 10 49.218 10.5075C50.8513 11.1841 52.1493 12.4819 52.826 14.1154C53.3333 15.3406 53.3333 16.8937 53.3333 20V23.3333M26.6667 23.3333H53.3333" stroke="#4DBD3C" stroke-width="5.2" stroke-linecap="square"/>
</svg>
