<svg width="80" height="80" viewBox="0 0 80 80" fill="none" xmlns="http://www.w3.org/2000/svg">
<path d="M33.3333 70H20.6667C16.933 70 15.0661 70 13.6401 69.2733C12.3856 68.6343 11.3658 67.6143 10.7266 66.36C10 64.934 10 63.067 10 59.3333V27.3333C10 23.5997 10 21.7328 10.7266 20.3067C11.3658 19.0523 12.3856 18.0324 13.6401 17.3933C15.0661 16.6667 16.933 16.6667 20.6667 16.6667H59.3333C63.067 16.6667 64.934 16.6667 66.36 17.3933C67.6143 18.0324 68.6343 19.0523 69.2733 20.3067C70 21.7328 70 23.5997 70 27.3333V33.3333M23.3333 10V16.6667M56.6667 10V16.6667M10 30H70M45 43.3337L23.3333 43.3333M33.3333 56.667L23.3333 56.6667M46.6667 70L53.4167 68.65C54.005 68.5323 54.2993 68.4733 54.5737 68.3657C54.8173 68.2703 55.049 68.1463 55.2633 67.9967C55.5053 67.828 55.7173 67.616 56.142 67.1913L70 53.3333C71.841 51.4923 71.841 48.5077 70 46.6667C68.159 44.8257 65.1743 44.8257 63.3333 46.6667L49.4753 60.5247C49.0507 60.9493 48.8387 61.1613 48.67 61.4033C48.5203 61.6177 48.3963 61.8493 48.301 62.093C48.1933 62.3673 48.1343 62.6617 48.0167 63.25L46.6667 70Z" stroke="#4DBD3C" stroke-width="5.2" stroke-linecap="square"/>
</svg>
