<svg width="26" height="26" viewBox="0 0 26 26" fill="none" xmlns="http://www.w3.org/2000/svg">
<path d="M16.7915 5.95776L19.8555 9.02189M3.25 22.7492L3.3014 22.3893C3.48331 21.116 3.57426 20.4794 3.78115 19.8849C3.96473 19.3575 4.21551 18.8559 4.52732 18.3927C4.87869 17.8705 5.33346 17.4157 6.24297 16.5062L18.8616 3.88753C19.7078 3.0414 21.0796 3.0414 21.9258 3.88753C22.7719 4.73367 22.7719 6.10553 21.9258 6.95167L9.07556 19.8019C8.25044 20.627 7.83788 21.0396 7.36797 21.3676C6.95086 21.6588 6.50101 21.9001 6.02765 22.0864C5.49435 22.2963 4.9224 22.4117 3.77859 22.6425L3.25 22.7492Z" stroke="#4DBD3C" stroke-width="1.8" stroke-linecap="square"/>
</svg>
