<svg width="80" height="80" viewBox="0 0 80 80" fill="none" xmlns="http://www.w3.org/2000/svg">
<path d="M70.0574 67.6752H26.1975C18.6307 67.6752 12.4651 60.3885 12.4651 51.4205C12.4651 42.4523 18.6307 35.1657 26.1975 35.1657H29.7008V40.3505C29.7008 41.8919 30.9619 43.153 32.5033 43.153H58.567C59.9683 43.153 61.2294 41.8919 61.2294 40.3505V34.8855H70.0574C71.5988 34.8855 72.86 33.6244 72.86 32.083C72.86 30.5417 71.5988 29.2805 70.0574 29.2805H61.2294V23.9557C61.2294 22.4144 59.9683 21.1532 58.4269 21.1532H48.3377V12.6051H52.962C54.3633 12.6051 55.6244 11.344 55.6244 9.80264C55.6244 8.26128 54.3631 7 52.8217 7H38.1083C36.5669 7 35.3058 8.26115 35.3058 9.8025C35.3058 11.3439 36.5669 12.605 38.1083 12.605H42.7325V21.1528H32.5031C30.9618 21.1528 29.7006 22.414 29.7006 23.9553V29.5605H26.1974C15.5477 29.5605 7 39.2293 7 51.2802C7 63.191 15.5478 73 26.1975 73H70.0574C71.5988 73 72.86 72.0191 72.86 70.4777C72.86 68.9362 71.5988 67.6752 70.0574 67.6752ZM35.3058 26.758H55.7643V37.6879H35.3058V26.758Z" fill="#4DBD3C"/>
</svg>
