<svg width="80" height="80" viewBox="0 0 80 80" fill="none" xmlns="http://www.w3.org/2000/svg">
<path d="M46.6673 64.2857L52.6673 70L66.6673 56.6667M55.0006 48.006C54.018 47.4383 52.9286 47.0327 51.7683 46.824C51.5166 46.779 51.25 46.7467 50.948 46.7237C50.1973 46.6667 49.822 46.6383 49.321 46.6757C48.8003 46.7143 48.5096 46.7657 48.007 46.9077C47.5236 47.044 46.653 47.4383 44.9113 48.2273C42.3976 49.366 39.6063 50 36.6673 50C33.7283 50 30.9371 49.366 28.4234 48.2273C26.6816 47.4383 25.8107 47.0437 25.3272 46.9073C24.8246 46.7657 24.5334 46.7143 24.0127 46.6753C23.5117 46.638 23.1366 46.6667 22.3865 46.724C22.0797 46.7473 21.809 46.7803 21.5526 46.8267C17.4487 47.5697 14.2369 50.7813 13.4939 54.8853C13.334 55.7687 13.334 56.8283 13.334 58.947V64.6667C13.334 66.5337 13.334 67.467 13.6973 68.18C14.0169 68.8073 14.5268 69.317 15.154 69.6367C15.8671 70 16.8005 70 18.6673 70H35.0006M50.0006 23.3333C50.0006 30.6971 44.031 36.6667 36.6673 36.6667C29.3035 36.6667 23.334 30.6971 23.334 23.3333C23.334 15.9695 29.3035 10 36.6673 10C44.031 10 50.0006 15.9695 50.0006 23.3333Z" stroke="#4DBD3C" stroke-width="5.2" stroke-linecap="square"/>
</svg>
