<svg width="26" height="26" viewBox="0 0 26 26" fill="none" xmlns="http://www.w3.org/2000/svg">
<path d="M16.2493 20.5833L18.416 22.75L22.7493 18.4167M14.0827 3.25H8.88268C7.66924 3.25 7.06251 3.25 6.59904 3.48616C6.19135 3.69387 5.85989 4.02533 5.65217 4.43302C5.41602 4.89649 5.41602 5.50322 5.41602 6.71667V19.2833C5.41602 20.4968 5.41602 21.1036 5.65217 21.567C5.85989 21.9747 6.19135 22.3062 6.59904 22.5138C7.06251 22.75 7.66924 22.75 8.88268 22.75H12.4577M14.0827 3.25L20.5827 9.75M14.0827 3.25V8.01667C14.0827 8.62339 14.0827 8.92675 14.2008 9.15849C14.3047 9.36233 14.4703 9.52806 14.6742 9.63193C14.9059 9.75 15.2092 9.75 15.816 9.75H20.5827M20.5827 9.75V14.5167M9.74935 18.4167H12.4577M9.74935 14.0833H16.2493M9.74935 9.75H10.8327" stroke="#4DBD3C" stroke-width="1.8" stroke-linecap="square"/>
</svg>
