<svg width="80" height="80" viewBox="0 0 80 80" fill="none" xmlns="http://www.w3.org/2000/svg">
<path d="M28.3333 53.3333C28.3333 53.3333 31.1404 54.5547 33 54.8783C38.4867 55.8327 41.5133 50.834 47 51.7883C48.8597 52.112 51.6667 53.3333 51.6667 53.3333M25 40C25 40 28.6091 41.2213 31 41.545C38.0543 42.4993 41.9457 37.5007 49 38.455C51.391 38.7787 55 40 55 40M28.3333 26.6667C28.3333 26.6667 31.1404 27.888 33 28.2115C38.4867 29.1661 41.5133 24.1673 47 25.1218C48.8597 25.4453 51.6667 26.6667 51.6667 26.6667M70 40C70 56.5687 56.5687 70 40 70C23.4315 70 10 56.5687 10 40C10 23.4315 23.4315 10 40 10C56.5687 10 70 23.4315 70 40Z" stroke="#4DBD3C" stroke-width="5.2" stroke-linecap="square"/>
</svg>
