<svg width="26" height="26" viewBox="0 0 26 26" fill="none" xmlns="http://www.w3.org/2000/svg">
<path d="M7.58333 22.7501V12.5668C7.58333 11.96 7.58333 11.6567 7.70141 11.425C7.80528 11.2211 7.971 11.0553 8.17484 10.9516C8.40658 10.8334 8.70995 10.8334 9.31667 10.8334H16.6833C17.2901 10.8334 17.5934 10.8334 17.8252 10.9516C18.0291 11.0553 18.1947 11.2211 18.2986 11.425C18.4167 11.6567 18.4167 11.96 18.4167 12.5668V22.7501M10.8333 15.1668H15.1667M10.8333 19.5001H15.1667M3.25 11.3623V21.0168C3.25 21.6235 3.25 21.9268 3.36807 22.1586C3.47194 22.3624 3.63767 22.5282 3.84151 22.6321C4.07325 22.7501 4.37661 22.7501 4.98333 22.7501H21.0167C21.6234 22.7501 21.9268 22.7501 22.1585 22.6321C22.3624 22.5282 22.528 22.3624 22.6319 22.1586C22.75 21.9268 22.75 21.6235 22.75 21.0168V11.3623C22.75 10.199 22.75 9.6174 22.5732 9.10357C22.4169 8.64916 22.1618 8.23508 21.8261 7.89113C21.4468 7.50221 20.9272 7.24068 19.8882 6.71762L15.3382 4.42713C14.481 3.99568 14.0526 3.77995 13.6028 3.69506C13.2044 3.61988 12.7956 3.61988 12.3972 3.69506C11.9474 3.77995 11.519 3.99567 10.6619 4.42713L6.11185 6.71762C5.07282 7.24068 4.55329 7.50221 4.17381 7.89113C3.83823 8.23508 3.58308 8.64916 3.42677 9.10357C3.25 9.6174 3.25 10.199 3.25 11.3623Z" stroke="#4DBD3C" stroke-width="2" stroke-linecap="square"/>
</svg>
