<svg width="26" height="26" viewBox="0 0 26 26" fill="none" xmlns="http://www.w3.org/2000/svg">
<path d="M23.8337 8.66642H21.667M21.667 8.66642H20.5837C18.417 6.50168 15.167 4.33286 13.0003 6.49975M21.667 8.66642V17.333M13.0003 6.49975L9.74985 9.75152C9.66388 9.83752 9.62089 9.88052 9.5863 9.91859C8.8349 10.7453 8.83521 12.0077 9.58703 12.8341C9.62164 12.8721 9.66472 12.9151 9.75066 13.001C9.83663 13.0869 9.87963 13.1299 9.91769 13.1645C10.7442 13.9155 12.0063 13.9154 12.8325 13.164C12.8705 13.1295 12.9135 13.0865 12.9995 13.0006L14.0832 11.9168M13.0003 6.49975C10.8337 4.33286 7.58366 6.50175 5.41699 8.66648H4.33366M21.667 17.333V20.583H23.8337M21.667 17.333H18.6029M4.33366 8.66648H2.16699M4.33366 8.66648V17.333M4.33366 17.333H6.50033L6.91413 18.1607C7.47059 19.2736 9.00375 19.4118 9.75032 18.4164C10.341 19.0071 10.6364 19.3024 10.955 19.4604C11.5611 19.7607 12.2729 19.7607 12.879 19.4604C13.1976 19.3024 13.493 19.0071 14.0837 18.4164L14.6253 18.958C14.7116 19.0443 14.7548 19.0875 14.7929 19.1223C15.6194 19.8734 16.8813 19.8734 17.7077 19.1223C17.7459 19.0875 17.7891 19.0443 17.8753 18.958C17.9616 18.8718 18.0048 18.8287 18.0395 18.7904C18.7906 17.9641 18.7906 16.7021 18.0395 15.8757C18.0048 15.8375 17.9616 15.7944 17.8753 15.708L16.2503 14.083M4.33366 17.333V20.583H2.16699" stroke="#4DBD3C" stroke-width="2.16667" stroke-linecap="square"/>
</svg>
