<svg width="80" height="80" viewBox="0 0 80 80" fill="none" xmlns="http://www.w3.org/2000/svg">
<path d="M50 40C50 45.523 45.523 50 40 50C34.477 50 30 45.523 30 40C30 34.477 34.477 30 40 30C45.523 30 50 34.477 50 40Z" stroke="#4DBD3C" stroke-width="5.2" stroke-linecap="round" stroke-linejoin="round"/>
<path d="M43.0153 10.2002C42.3293 10 41.553 10 40 10C38.447 10 37.6707 10 36.9847 10.2002C35.9807 10.4931 35.0937 11.0936 34.4487 11.917C34.008 12.4796 33.7197 13.2005 33.143 14.6424C32.314 16.7151 30.0131 17.7824 27.8952 17.0767L25.9926 16.4427C24.643 15.9928 23.9682 15.7679 23.3065 15.7293C22.3346 15.6727 21.3673 15.9011 20.5234 16.3863C19.9488 16.7167 19.4459 17.2197 18.4399 18.2257C17.3707 19.2948 16.8361 19.8294 16.4965 20.4396C15.9976 21.3361 15.7865 22.3645 15.892 23.385C15.9637 24.0797 16.2445 24.7816 16.8061 26.1855C17.6855 28.3841 16.8395 30.8959 14.8091 32.1144L13.884 32.6696C12.4677 33.5193 11.7595 33.9443 11.2451 34.5293C10.7899 35.047 10.4467 35.6533 10.237 36.31C10 37.052 10 37.886 10 39.5543C10 41.5297 10 42.517 10.3154 43.3627C10.5941 44.1097 11.0474 44.779 11.6375 45.3153C12.3053 45.922 13.2132 46.2853 15.0289 47.0117C16.8845 47.7537 17.8399 49.8137 17.2079 51.7097L16.4907 53.8613C15.994 55.3513 15.7456 56.0967 15.723 56.8287C15.6958 57.709 15.9016 58.5807 16.3196 59.3557C16.6672 60.0007 17.2226 60.556 18.3333 61.6667C19.4441 62.7773 19.9995 63.3327 20.6442 63.6803C21.4193 64.0983 22.2911 64.3043 23.1713 64.277C23.9034 64.2543 24.6485 64.006 26.1388 63.5093L27.8954 62.9237C30.0131 62.218 32.314 63.285 33.143 65.3577C33.7197 66.7993 34.008 67.5203 34.4487 68.083C35.0937 68.9063 35.9807 69.507 36.9847 69.8C37.6707 70 38.447 70 40 70C41.553 70 42.3293 70 43.0153 69.8C44.0193 69.507 44.9063 68.9063 45.5513 68.083C45.992 67.5203 46.2803 66.7993 46.857 65.3577C47.686 63.285 49.987 62.218 52.1043 62.9243L53.8597 63.5097C55.35 64.0063 56.0953 64.2547 56.8273 64.2773C57.7077 64.3043 58.5793 64.0987 59.3543 63.6807C59.999 63.333 60.5547 62.7777 61.6653 61.667C62.776 60.5563 63.3313 60.0007 63.679 59.356C64.097 58.581 64.3027 57.709 64.2757 56.829C64.253 56.097 64.0047 55.3517 63.508 53.8613L62.7913 51.7113C62.159 49.8147 63.1147 47.754 64.971 47.0117C66.7867 46.2853 67.6947 45.922 68.3627 45.3153C68.9527 44.779 69.406 44.1097 69.6847 43.3627C70 42.517 70 41.5297 70 39.5543C70 37.886 70 37.052 69.763 36.31C69.5533 35.6533 69.21 35.047 68.755 34.5293C68.2403 33.9443 67.5323 33.5193 66.116 32.6696L65.1897 32.1139C63.1593 30.8956 62.313 28.3838 63.1927 26.1853C63.754 24.7814 64.035 24.0794 64.1067 23.3848C64.212 22.3642 64.001 21.3359 63.502 20.4394C63.1623 19.8292 62.628 19.2946 61.5587 18.2254C60.5527 17.2195 60.0497 16.7165 59.4753 16.3861C58.6313 15.9008 57.664 15.6725 56.692 15.7291C56.0303 15.7676 55.3557 15.9926 54.006 16.4424L52.1047 17.0762C49.987 17.7821 47.686 16.715 46.857 14.6424C46.2803 13.2005 45.992 12.4796 45.5513 11.917C44.9063 11.0936 44.0193 10.4931 43.0153 10.2002Z" stroke="#4DBD3C" stroke-width="5.2" stroke-linecap="round" stroke-linejoin="round"/>
</svg>
