<svg width="40" height="40" viewBox="0 0 40 40" fill="none" xmlns="http://www.w3.org/2000/svg">
<circle cx="20" cy="20" r="20" fill="#100943"/>
<path d="M22.3304 19.5434H16.4808V17.2053H22.3304C22.6721 17.2053 22.9097 17.2654 23.0289 17.3705C23.1482 17.4755 23.222 17.6704 23.222 17.955V18.7946C23.222 19.0945 23.1482 19.2893 23.0289 19.3944C22.9097 19.4994 22.6721 19.5443 22.3304 19.5443V19.5434ZM22.7317 15.0009H14V25H16.4808V21.7469H21.0526L23.222 25H26L23.6082 21.7316C24.49 21.5996 24.886 21.3267 25.2125 20.8768C25.5391 20.427 25.7028 19.7077 25.7028 18.7479V17.9981C25.7028 17.4288 25.6432 16.979 25.5391 16.6342C25.435 16.2894 25.257 15.9895 25.0043 15.7201C24.7374 15.4651 24.4402 15.2855 24.0833 15.1652C23.7265 15.0602 23.2807 15 22.7317 15V15.0009Z" fill="white"/>
<path d="M27.5 15C28.3284 15 29 14.3284 29 13.5C29 12.6716 28.3284 12 27.5 12C26.6716 12 26 12.6716 26 13.5C26 14.3284 26.6716 15 27.5 15Z" fill="#ED143B"/>
</svg>
