<svg width="80" height="80" viewBox="0 0 80 80" fill="none" xmlns="http://www.w3.org/2000/svg">
<path d="M43.3333 43.3333L53.3333 26.6667M26.6667 26.6667H26.7M40 20H40.0333M60 40H60.0333M20 40H20.0333M46.6667 50C46.6667 53.682 43.682 56.6667 40 56.6667C36.318 56.6667 33.3333 53.682 33.3333 50C33.3333 46.318 36.318 43.3333 40 43.3333C43.682 43.3333 46.6667 46.318 46.6667 50ZM70 40C70 56.5687 56.5687 70 40 70C23.4315 70 10 56.5687 10 40C10 23.4315 23.4315 10 40 10C56.5687 10 70 23.4315 70 40Z" stroke="#4DBD3C" stroke-width="5.2" stroke-linecap="square"/>
</svg>
