<svg width="26" height="26" viewBox="0 0 26 26" fill="none" xmlns="http://www.w3.org/2000/svg">
<path d="M14.0833 11.9168H13C11.9904 11.9168 11.4857 11.9168 11.0875 12.0817C10.5566 12.3016 10.1348 12.7235 9.91493 13.2543C9.75 13.6526 9.75 14.1573 9.75 15.1668C9.75 16.1764 9.75 16.6811 9.91493 17.0794C10.1348 17.6102 10.5566 18.032 11.0875 18.252C11.4857 18.4168 11.9904 18.4168 13 18.4168H14.0833M16.25 9.75018H16.2608M3.25 15.8168V13.1411C3.25 11.8967 3.25 11.2745 3.41039 10.7015C3.55247 10.1939 3.78596 9.71651 4.09939 9.29273C4.45323 8.81433 4.94438 8.43233 5.92668 7.66832L8.74334 5.47758C10.2658 4.29348 11.0269 3.70143 11.8675 3.47385C12.6091 3.27304 13.3909 3.27304 14.1325 3.47385C14.9731 3.70143 15.7342 4.29349 17.2566 5.47758L20.0733 7.66832C21.0557 8.43233 21.5467 8.81433 21.9006 9.29273C22.2141 9.71651 22.4475 10.1939 22.5896 10.7015C22.75 11.2745 22.75 11.8967 22.75 13.1411V15.8168C22.75 18.2437 22.75 19.4572 22.2777 20.3842C21.8622 21.1995 21.1993 21.8624 20.384 22.2778C19.457 22.7502 18.2436 22.7502 15.8167 22.7502H10.1833C7.75644 22.7502 6.543 22.7502 5.61604 22.2778C4.80067 21.8624 4.13776 21.1995 3.7223 20.3842C3.25 19.4572 3.25 18.2437 3.25 15.8168Z" stroke="#4DBD3C" stroke-width="1.8" stroke-linecap="square"/>
</svg>
