<svg width="80" height="80" viewBox="0 0 80 80" fill="none" xmlns="http://www.w3.org/2000/svg">
<path d="M29.9993 56.6667H43.3327M29.9993 43.3333H43.3327M29.9993 30H33.3327M56.666 60V70M56.666 50H56.6993M43.3327 10H27.3327C23.599 10 21.7321 10 20.3061 10.7266C19.0516 11.3658 18.0318 12.3856 17.3926 13.6401C16.666 15.0661 16.666 16.933 16.666 20.6667V59.3333C16.666 63.067 16.666 64.934 17.3926 66.36C18.0318 67.6143 19.0516 68.6343 20.3061 69.2733C21.7321 70 23.599 70 27.3327 70H43.3327M43.3327 10L63.3327 30M43.3327 10V24.6667C43.3327 26.5335 43.3327 27.4669 43.696 28.18C44.0157 28.8072 44.5253 29.3171 45.1527 29.6367C45.8657 30 46.799 30 48.666 30H63.3327M63.3327 30V38.3333" stroke="#4DBD3C" stroke-width="5.2" stroke-linecap="square"/>
</svg>
