<svg width="210" height="82" viewBox="0 0 210 82" fill="none" xmlns="http://www.w3.org/2000/svg">
<g clip-path="url(#clip0_713_841)">
<path fill-rule="evenodd" clip-rule="evenodd" d="M74.3305 41.3914H209.033C209.513 41.3914 209.907 41.7839 209.907 42.2621V52.5974C209.907 53.0754 209.512 53.4684 209.033 53.4684H74.3305C73.8509 53.4684 73.457 53.0764 73.457 52.5974V42.2621C73.457 41.7835 73.8504 41.3914 74.3305 41.3914ZM84.9349 44.1054C84.757 44.1054 84.6254 44.1709 84.5411 44.2924L83.265 46.4714C83.0022 46.9107 82.7018 47.5653 82.3641 48.4162H82.2984C82.4486 47.9209 82.5426 47.5375 82.5891 47.2664C82.6266 46.9953 82.6457 46.612 82.6457 46.1067V44.4994C82.6457 44.2077 82.5518 44.1054 82.2509 44.1054H81.1909C80.891 44.1054 80.7873 44.2077 80.7873 44.4994V50.3601C80.7873 50.6516 80.891 50.7544 81.1909 50.7544H82.3263C82.5138 50.7544 82.6457 50.6889 82.7109 50.566L84.0061 48.3669C84.2129 48.0189 84.3717 47.7388 84.4754 47.5046C84.5784 47.2707 84.7099 46.9155 84.8879 46.437H84.9631C84.9343 46.5658 84.903 46.6941 84.8692 46.8218C84.8222 46.9997 84.7943 47.1121 84.7852 47.1685C84.766 47.2239 84.7473 47.3176 84.719 47.4394C84.6629 47.701 84.6629 47.7755 84.635 48.0099C84.6063 48.2445 84.6063 48.4601 84.6063 48.759V50.3505C84.6063 50.6516 84.7099 50.7544 85.0102 50.7544H86.0608C86.361 50.7544 86.4642 50.6516 86.4642 50.3601V44.5075C86.4642 44.2077 86.361 44.1054 86.0608 44.1054H84.9349ZM97.7247 44.1054C97.4335 44.1054 97.3308 44.2077 97.3308 44.5075V46.5742H95.5104V44.5075C95.5104 44.2077 95.4163 44.1054 95.1156 44.1054H94.0559C93.7552 44.1054 93.6525 44.2077 93.6525 44.5075V50.3619C93.6525 50.6516 93.7552 50.7544 94.0559 50.7544H95.1156C95.4163 50.7544 95.5104 50.6516 95.5104 50.3619V48.2106H97.3308V50.3619C97.3308 50.6516 97.4335 50.7544 97.7247 50.7544H98.7949C99.0856 50.7544 99.1888 50.6516 99.1888 50.3619V44.5075C99.1888 44.2077 99.0856 44.1054 98.7949 44.1054H97.7247ZM113.62 44.1054C113.123 44.1054 113.02 44.1523 112.869 44.453L111.762 46.5928C111.716 46.5837 111.64 46.5837 111.556 46.5837H111.481V44.4994C111.481 44.2097 111.378 44.1054 111.087 44.1054H110.017C109.726 44.1054 109.623 44.2097 109.623 44.4994V46.5837H109.548C109.464 46.5837 109.398 46.5837 109.341 46.5928L108.234 44.453C108.084 44.1523 107.981 44.1054 107.484 44.1054H106.404C106.123 44.1054 106.048 44.2469 106.179 44.5185L107.681 47.3315C107.531 47.4906 107.39 47.7058 107.258 47.9582L106.076 50.2959C105.935 50.5484 106.02 50.7544 106.32 50.7544H107.333C107.849 50.7544 108.018 50.6889 108.168 50.3619L108.938 48.6409C109.088 48.3139 109.21 48.2106 109.548 48.2106H109.623V50.3619C109.623 50.6516 109.726 50.7544 110.017 50.7544H111.087C111.378 50.7544 111.481 50.6516 111.481 50.3619V48.2106H111.556C111.903 48.2106 112.016 48.3139 112.166 48.6409L112.935 50.3619C113.085 50.6889 113.255 50.7544 113.77 50.7544H114.784C115.084 50.7544 115.169 50.5484 115.028 50.2959L113.845 47.9582C113.714 47.7058 113.573 47.4906 113.423 47.3315L114.925 44.5185C115.065 44.2661 114.972 44.1054 114.699 44.1054H113.62ZM125.951 44.1054C125.772 44.1054 125.64 44.1709 125.556 44.2924L124.28 46.4714C124.017 46.9107 123.717 47.5653 123.38 48.4162H123.313C123.463 47.9209 123.558 47.5375 123.604 47.2664C123.641 46.9953 123.661 46.612 123.661 46.1067V44.4994C123.661 44.2077 123.566 44.1054 123.267 44.1054H122.206C121.906 44.1054 121.802 44.2077 121.802 44.4994V50.3601C121.802 50.6516 121.906 50.7544 122.206 50.7544H123.341C123.529 50.7544 123.661 50.6889 123.726 50.566L125.021 48.3669C125.228 48.0189 125.387 47.7388 125.491 47.5046C125.594 47.2707 125.725 46.9155 125.903 46.437H125.978C125.96 46.5211 125.931 46.6426 125.885 46.8218C125.837 46.9997 125.81 47.1121 125.8 47.1685C125.782 47.2239 125.762 47.3176 125.735 47.4394C125.678 47.701 125.678 47.7755 125.65 48.0099C125.622 48.2445 125.622 48.4601 125.622 48.759V50.3505C125.622 50.6516 125.725 50.7544 126.025 50.7544H127.076C127.376 50.7544 127.479 50.6516 127.479 50.3601V44.5075C127.479 44.2077 127.376 44.1054 127.076 44.1054H125.951ZM138.74 44.1054C138.449 44.1054 138.346 44.2077 138.346 44.5075V46.5742H136.526V44.5075C136.526 44.2077 136.431 44.1054 136.132 44.1054H135.07C134.771 44.1054 134.668 44.2077 134.668 44.5075V50.3619C134.668 50.6516 134.771 50.7544 135.07 50.7544H136.132C136.431 50.7544 136.526 50.6516 136.526 50.3619V48.2106H138.346V50.3619C138.346 50.6516 138.449 50.7544 138.74 50.7544H139.809C140.101 50.7544 140.204 50.6516 140.204 50.3619V44.5075C140.204 44.2077 140.101 44.1054 139.809 44.1054H138.74ZM151.538 44.1054C151.36 44.1054 151.229 44.1709 151.146 44.2924L149.868 46.4714C149.606 46.9107 149.306 47.5653 148.967 48.4162H148.902C149.053 47.9209 149.146 47.5375 149.193 47.2664C149.231 46.9953 149.249 46.612 149.249 46.1067V44.4994C149.249 44.2077 149.155 44.1054 148.855 44.1054H147.794C147.495 44.1054 147.391 44.2077 147.391 44.4994V50.3601C147.391 50.6516 147.495 50.7544 147.794 50.7544H148.93C149.118 50.7544 149.249 50.6889 149.314 50.566L150.61 48.3669C150.816 48.0189 150.976 47.7388 151.079 47.5046C151.182 47.2707 151.314 46.9155 151.492 46.437H151.567C151.548 46.5211 151.52 46.6426 151.473 46.8218C151.425 46.9997 151.398 47.1121 151.389 47.1685C151.37 47.2239 151.351 47.3176 151.324 47.4394C151.267 47.701 151.267 47.7755 151.239 48.0099C151.211 48.2445 151.211 48.4601 151.211 48.759V50.3505C151.211 50.6516 151.314 50.7544 151.613 50.7544H152.665C152.965 50.7544 153.069 50.6516 153.069 50.3601V44.5075C153.069 44.2077 152.965 44.1054 152.665 44.1054H151.538ZM160.659 44.1054C160.359 44.1054 160.256 44.2077 160.256 44.4979V50.3619C160.256 50.6516 160.359 50.7544 160.659 50.7544H161.72C162.02 50.7544 162.114 50.6516 162.114 50.3619V48.7623H163.269C164.741 48.7623 165.671 47.9119 165.671 46.4475C165.671 44.9751 164.723 44.1054 163.249 44.1054H160.659ZM162.114 47.1259V45.7418H163.043C163.484 45.7418 163.746 46.0239 163.746 46.4385C163.746 46.8533 163.484 47.1259 163.043 47.1259H162.114ZM176.724 44.1054C176.546 44.1054 176.414 44.1709 176.33 44.2924L175.054 46.4714C174.791 46.9107 174.491 47.5653 174.153 48.4162H174.088C174.238 47.9209 174.331 47.5375 174.378 47.2664C174.416 46.9953 174.434 46.612 174.434 46.1067V44.4994C174.434 44.2077 174.341 44.1054 174.04 44.1054H172.98C172.679 44.1054 172.576 44.2077 172.576 44.4994V50.3601C172.576 50.6516 172.679 50.7544 172.98 50.7544H174.115C174.303 50.7544 174.434 50.6889 174.5 50.566L175.795 48.3669C176.002 48.0189 176.161 47.7388 176.264 47.5046C176.367 47.2707 176.5 46.9155 176.678 46.437H176.753C176.734 46.5211 176.706 46.6426 176.658 46.8218C176.611 46.9997 176.583 47.1121 176.575 47.1685C176.555 47.2239 176.536 47.3176 176.508 47.4394C176.452 47.701 176.452 47.7755 176.423 48.0099C176.395 48.2445 176.395 48.4601 176.395 48.759V50.3505C176.395 50.6516 176.5 50.7544 176.799 50.7544H177.849C178.15 50.7544 178.253 50.6516 178.253 50.3601V44.5075C178.253 44.2077 178.15 44.1054 177.849 44.1054H176.724ZM189.514 44.1054C189.223 44.1054 189.12 44.2077 189.12 44.5075V46.5742H187.299V44.5075C187.299 44.2077 187.206 44.1054 186.905 44.1054H185.845C185.544 44.1054 185.441 44.2077 185.441 44.5075V50.3619C185.441 50.6516 185.544 50.7544 185.845 50.7544H186.905C187.206 50.7544 187.299 50.6516 187.299 50.3619V48.2106H189.12V50.3619C189.12 50.6516 189.223 50.7544 189.514 50.7544H190.584C190.874 50.7544 190.977 50.6516 190.977 50.3619V44.5075C190.977 44.2077 190.874 44.1054 190.584 44.1054H189.514ZM198.569 44.1054C198.268 44.1054 198.165 44.2077 198.165 44.4979V50.3601C198.165 50.6516 198.268 50.7544 198.569 50.7544H199.628C199.929 50.7544 200.023 50.6516 200.023 50.3601V45.7418H202.172C202.473 45.7418 202.576 45.639 202.576 45.3398V44.4979C202.576 44.2077 202.473 44.1054 202.172 44.1054H198.569Z" fill="#112836"/>
<path d="M0.425781 18.0661L31.2068 0.35508L61.9874 18.0661V53.4684L14.1361 81.0013V65.2427L48.2771 45.5989V25.9412L31.2068 16.1188L14.1361 25.9412V49.6888L9.2393 52.5061V23.1369L31.2068 10.4973L53.1744 23.1369V48.4028L19.0329 68.0471V72.5725L57.0906 50.6751V20.8704L31.2068 5.9771L5.32259 20.8704V59.9152L39.2404 40.399V31.1408L31.2068 26.5183L23.1728 31.1408V44.4889L18.2755 47.307V28.3364L31.2068 20.8963L44.1372 28.3364V43.2033L0.425781 68.3545V18.0661Z" fill="#53BF43"/>
<path fill-rule="evenodd" clip-rule="evenodd" d="M74.5656 18.4699C73.7271 18.4699 73.457 18.7401 73.457 19.5757V36.5052C73.457 37.3403 73.7271 37.6104 74.5656 37.6104H76.7564C77.5954 37.6104 77.8654 37.3403 77.8654 36.5052V31.3831H81.8153C85.9264 31.3831 88.4419 28.9564 88.4419 24.9402C88.4419 20.9234 85.8995 18.4699 81.8153 18.4699H74.5656ZM77.8654 27.3664V22.46H81.3548C82.9508 22.46 83.8709 23.4032 83.8709 24.9402C83.8709 26.4767 82.9508 27.3664 81.3548 27.3664H77.8654ZM103.374 18.4699C102.049 18.4699 101.255 18.5627 100.877 19.4405L97.6585 26.9079L94.115 19.4405C93.6961 18.5575 93.3843 18.4699 92.0047 18.4699H89.7329C89.0028 18.4699 88.8027 18.8529 89.1649 19.5757L95.3592 31.9491L93.1685 36.5052C92.8183 37.2332 93.0058 37.6104 93.7091 37.6104H96.252C97.4153 37.6104 97.67 37.4689 98.037 36.6394L105.584 19.5757C105.906 18.8467 105.719 18.4699 105.043 18.4699H103.374ZM106.349 30.7631C106.349 35.2918 109.271 38.0144 114.329 38.0144C118.278 38.0144 120.794 36.5052 121.903 33.4857C122.173 32.8116 121.956 32.3263 121.226 32.084L119.143 31.3558C118.386 31.0595 118.034 31.2482 117.737 32.0299C117.223 33.3513 116.087 33.9976 114.329 33.9976C111.948 33.9976 110.758 32.9196 110.758 30.7898V25.2906C110.758 23.1607 111.948 22.0828 114.329 22.0828C116.087 22.0828 117.223 22.7296 117.737 24.05C118.034 24.8322 118.359 24.9669 119.143 24.7241L121.226 23.9965C121.956 23.7541 122.173 23.2683 121.903 22.5943C120.794 19.5757 118.278 18.0661 114.329 18.0661C109.271 18.0661 106.349 20.7887 106.349 25.3174V30.7631ZM125.392 18.4699C124.553 18.4699 124.283 18.7401 124.283 19.5757V36.5052C124.283 37.3403 124.553 37.6104 125.392 37.6104H136.536C137.375 37.6104 137.645 37.3403 137.645 36.5052V34.6985C137.645 33.9168 137.321 33.5937 136.536 33.5937H128.692V29.9274H134.914C135.753 29.9274 136.023 29.6572 136.023 28.822V27.0159C136.023 26.1797 135.753 25.9374 134.914 25.9374H128.692V22.46H136.266C137.105 22.46 137.375 22.2175 137.375 21.3814V19.5757C137.375 18.7401 137.105 18.4699 136.266 18.4699H125.392ZM141.189 18.4699C140.351 18.4699 140.08 18.7401 140.08 19.5757V36.5052C140.08 37.3403 140.351 37.6104 141.189 37.6104H143.38C144.219 37.6104 144.489 37.3403 144.489 36.5052V22.46H150.872V36.5052C150.872 37.3403 151.144 37.6104 151.983 37.6104H154.173C155.012 37.6104 155.255 37.3403 155.255 36.5052V19.5757C155.255 18.7401 155.012 18.4699 154.173 18.4699H141.189ZM158.853 18.4699C158.016 18.4699 157.745 18.7401 157.745 19.5757V21.3814C157.745 22.2172 158.015 22.46 158.853 22.46H163.1V36.5052C163.1 37.3398 163.344 37.6104 164.182 37.6104H166.373C167.211 37.6104 167.482 37.3403 167.482 36.5052V22.46H171.702C172.541 22.46 172.811 22.2175 172.811 21.3814V19.5757C172.811 18.7401 172.54 18.4699 171.702 18.4699H158.853ZM187.523 18.4699C187.038 18.4699 186.688 18.6349 186.468 18.9825L181.572 26.7196C180.893 27.7943 180.409 28.6873 180.058 29.3881C179.707 30.089 179.327 31.0322 178.922 32.2187H178.76C179.111 30.8171 179.353 29.7376 179.462 28.9837C179.568 28.256 179.624 27.1508 179.624 25.695V19.5757C179.624 18.7401 179.354 18.4699 178.516 18.4699H176.325C175.487 18.4699 175.216 18.7405 175.216 19.5757V36.5052C175.216 37.3398 175.486 37.6104 176.325 37.6104H178.624C179.138 37.6104 179.467 37.4349 179.679 37.0979L184.629 29.2265C185.296 28.1685 185.798 27.3143 186.117 26.6387C186.42 25.9943 186.793 25.075 187.226 23.8616H187.388C187.361 23.9692 187.086 25.2084 187.064 25.2638C187.032 25.3428 187 25.5311 186.929 25.8298C186.785 26.4207 186.833 26.4255 186.739 26.9346C186.644 27.4495 186.659 27.5819 186.603 28.0672C186.524 28.7676 186.522 29.4159 186.522 30.3854V36.5052C186.522 37.3398 186.793 37.6104 187.631 37.6104H189.823C190.661 37.6104 190.931 37.3403 190.931 36.5052V19.5757C190.931 18.7401 190.661 18.4699 189.823 18.4699H187.523ZM206.025 29.8733C205.3 28.4965 204.484 27.5547 203.564 27.0432L209.164 19.5485C209.59 18.9777 209.379 18.4699 208.622 18.4699H206.269C204.971 18.4699 204.674 18.6071 204.105 19.387L199.317 25.9374H198.641V19.5757C198.641 18.7401 198.371 18.4699 197.532 18.4699H195.341C194.503 18.4699 194.232 18.7405 194.232 19.5757V36.5052C194.232 37.3398 194.502 37.6104 195.341 37.6104H197.532C198.371 37.6104 198.641 37.3403 198.641 36.5052V29.8733H199.344C200.859 29.8733 201.341 30.2272 201.967 31.4912L204.511 36.6127C204.923 37.444 205.322 37.6104 206.729 37.6104H208.892C209.678 37.6104 209.843 37.1266 209.488 36.4506L206.025 29.8733Z" fill="#112836"/>
</g>
<defs>
<clipPath id="clip0_713_841">
<rect width="210" height="82" fill="white"/>
</clipPath>
</defs>
</svg>
