<svg width="75" height="75" viewBox="0 0 75 75" fill="none" xmlns="http://www.w3.org/2000/svg">
<path d="M34.375 25L50 25.0017M34.375 37.5L50 37.5016M34.375 50L50 50.0016M25 50H25.0313M25 37.5H25.0313M25 25H25.0313M22.5 12.5H52.5C56.0003 12.5 57.7506 12.5 59.0875 13.1812C60.2634 13.7804 61.2197 14.7365 61.8187 15.9126C62.5 17.2495 62.5 18.9997 62.5 22.5V52.5C62.5 56.0003 62.5 57.7506 61.8187 59.0875C61.2197 60.2634 60.2634 61.2197 59.0875 61.8187C57.7506 62.5 56.0003 62.5 52.5 62.5H22.5C18.9997 62.5 17.2495 62.5 15.9126 61.8187C14.7365 61.2197 13.7804 60.2634 13.1812 59.0875C12.5 57.7506 12.5 56.0003 12.5 52.5V22.5C12.5 18.9997 12.5 17.2495 13.1812 15.9126C13.7804 14.7365 14.7365 13.7804 15.9126 13.1812C17.2495 12.5 18.9997 12.5 22.5 12.5Z" stroke="#4DBD3C" stroke-width="5.2" stroke-linecap="square"/>
</svg>
