<svg width="75" height="75" viewBox="0 0 75 75" fill="none" xmlns="http://www.w3.org/2000/svg">
<path d="M37.5 31.25V35.9375M37.5 43.75H37.5312M31.25 53.125V59.3737C31.25 62.8256 34.0481 65.6237 37.5 65.6237C40.9519 65.6237 43.75 62.8256 43.75 59.3737V55.3M37.5 9.375V12.5M57.3884 17.6117L55.1787 19.8214M17.6117 17.6117L19.8214 19.8214M12.5 37.5H9.375M65.625 37.5H62.5M53.125 37.5C53.125 46.1294 46.1294 53.125 37.5 53.125C28.8706 53.125 21.875 46.1294 21.875 37.5C21.875 28.8706 28.8706 21.875 37.5 21.875C46.1294 21.875 53.125 28.8706 53.125 37.5Z" stroke="#4DBD3C" stroke-width="5.2" stroke-linecap="square"/>
</svg>
