<svg width="75" height="75" viewBox="0 0 75 75" fill="none" xmlns="http://www.w3.org/2000/svg">
<path d="M40.625 43.7525L21.875 43.75M40.625 43.7525L32.8125 35.9375M40.625 43.7525L32.8125 51.5625M65.625 37.5V35C65.625 31.4997 65.625 29.7495 64.9437 28.4126C64.3447 27.2365 63.3884 26.2804 62.2125 25.6812C60.8756 25 59.1253 25 55.625 25H9.375M65.625 37.5V50M65.625 37.5H59.375C55.9231 37.5 53.125 40.2981 53.125 43.75C53.125 47.2019 55.9231 50 59.375 50H65.625M9.375 25V52.5C9.375 56.0003 9.375 57.7506 10.0562 59.0875C10.6554 60.2634 11.6115 61.2197 12.7876 61.8187C14.1245 62.5 15.8747 62.5 19.375 62.5H55.625C59.1253 62.5 60.8756 62.5 62.2125 61.8187C63.3884 61.2197 64.3447 60.2634 64.9437 59.0875C65.625 57.7506 65.625 56.0003 65.625 52.5V50M9.375 25V22.5C9.375 18.9997 9.375 17.2495 10.0562 15.9126C10.6554 14.7365 11.6115 13.7804 12.7876 13.1812C14.1245 12.5 15.8747 12.5 19.375 12.5H46.25C49.7503 12.5 51.5006 12.5 52.8375 13.1812C54.0134 13.7804 54.9697 14.7365 55.5687 15.9126C56.25 17.2495 56.25 18.9997 56.25 22.5V25" stroke="#4DBD3C" stroke-width="5.2" stroke-linecap="square"/>
</svg>
