<svg width="75" height="75" viewBox="0 0 75 75" fill="none" xmlns="http://www.w3.org/2000/svg">
<path d="M34.375 65.625H12.5C12.5 54.6047 20.6491 45.4878 31.25 43.9716M62.1019 47.5119C61.8887 47.5247 61.6741 47.5313 61.4584 47.5313C58.2569 47.5313 55.3366 46.1012 53.125 43.75C50.9134 46.1012 47.9931 47.5309 44.7916 47.5309C44.5759 47.5309 44.3612 47.5244 44.1481 47.5116C43.8881 48.7041 43.75 49.9547 43.75 51.2434C43.75 58.1628 47.7337 63.9766 53.125 65.625C58.5162 63.9766 62.5 58.1628 62.5 51.2434C62.5 49.9547 62.3619 48.7041 62.1019 47.5119ZM46.875 21.875C46.875 28.7786 41.2784 34.375 34.375 34.375C27.4714 34.375 21.875 28.7786 21.875 21.875C21.875 14.9714 27.4714 9.375 34.375 9.375C41.2784 9.375 46.875 14.9714 46.875 21.875Z" stroke="#4DBD3C" stroke-width="5.2" stroke-linecap="square"/>
</svg>
