<svg width="0" height="0">
	<symbol xmlns="http://www.w3.org/2000/svg" id="marker" viewBox="0 0 15 14">
		<path fill-rule="evenodd" clip-rule="evenodd" d="M13.3033 0.0919507C14.2501 -0.302438 15.2016 0.642568 14.8034 1.58184L9.81656 13.346C9.39092 14.35 7.90139 14.1509 7.75863 13.0708L7.41062 10.4379C7.20284 8.86594 5.95627 7.6289 4.37231 7.42286L1.71513 7.07722C0.626362 6.9356 0.426102 5.45635 1.43861 5.03456L13.3033 0.0919507ZM12.5919 2.28618L4.46801 5.67042L4.60147 5.68778C6.97741 5.99683 8.8473 7.85234 9.15894 10.2103L9.1765 10.3432L12.5919 2.28618Z"/>
	</symbol>

	<symbol xmlns="http://www.w3.org/2000/svg" id="handshake" viewBox="0 0 64 46">
		<path d="M61.23 11.2343H55.407M55.407 11.2343H52.4955C46.6725 5.41647 37.938 -0.412319 32.115 5.41129M55.407 11.2343V34.5261M32.115 5.41129L23.3792 14.1505C23.1482 14.3817 23.0326 14.4972 22.9397 14.5995C20.9202 16.8213 20.9211 20.2141 22.9416 22.435C23.0346 22.5372 23.1504 22.6527 23.3814 22.8836C23.6124 23.1145 23.728 23.2301 23.8303 23.323C26.0516 25.3415 29.4434 25.3412 31.664 23.3218C31.7662 23.2289 31.8818 23.1133 32.1127 22.8825L35.0253 19.9698M32.115 5.41129C26.292 -0.412319 17.5575 5.41668 11.7345 11.2345H8.823M55.407 34.5261V43.2606H61.23M55.407 34.5261H47.1721M8.823 11.2345H3M8.823 11.2345V34.5261M8.823 34.5261H14.646L15.7581 36.7505C17.2536 39.7415 21.374 40.113 23.3805 37.4376C24.968 39.0253 25.7617 39.8189 26.6181 40.2434C28.2471 41.0505 30.1599 41.0505 31.7889 40.2434C32.6452 39.8189 33.4391 39.0253 35.0265 37.4376L36.4822 38.8934C36.714 39.1251 36.8302 39.2413 36.9326 39.3348C39.1538 41.3536 42.5451 41.3536 44.7663 39.3348C44.8688 39.2413 44.985 39.1251 45.2167 38.8934C45.4485 38.6616 45.5647 38.5457 45.6578 38.443C47.6767 36.2221 47.6767 32.8305 45.6578 30.6096C45.5647 30.5068 45.4485 30.3909 45.2167 30.1589L40.8495 25.7916M8.823 34.5261V43.2606H3" fill="none" stroke-width="5.2" stroke-linecap="square"/>
	</symbol>

	<symbol xmlns="http://www.w3.org/2000/svg" id="check" viewBox="0 0 58 58">
		<path d="M17.6667 29.9443L24.6409 37.5L40.3333 20.5M54.5 29C54.5 43.0834 43.0834 54.5 29 54.5C14.9167 54.5 3.5 43.0834 3.5 29C3.5 14.9167 14.9167 3.5 29 3.5C43.0834 3.5 54.5 14.9167 54.5 29Z" fill="none" stroke-width="5.2" stroke-linecap="square"/>
	</symbol>

	<symbol xmlns="http://www.w3.org/2000/svg" id="calendar" viewBox="0 0 56 56">
		<path d="M3 19.6667H53M28 28V36.3333M28 44.6667H28.0278M14.1111 3V8.55556M41.8889 3V8.55556M11.8889 53H44.1111C47.2225 53 48.7783 53 49.9667 52.3944C51.0119 51.8619 51.8619 51.0119 52.3944 49.9667C53 48.7783 53 47.2225 53 44.1111V17.4444C53 14.333 53 12.7773 52.3944 11.5889C51.8619 10.5436 51.0119 9.69369 49.9667 9.16108C48.7783 8.55556 47.2225 8.55556 44.1111 8.55556H11.8889C8.7775 8.55556 7.22178 8.55556 6.03339 9.16108C4.98803 9.69369 4.13814 10.5436 3.60553 11.5889C3 12.7773 3 14.333 3 17.4444V44.1111C3 47.2225 3 48.7783 3.60553 49.9667C4.13814 51.0119 4.98803 51.8619 6.03339 52.3944C7.22178 53 8.77747 53 11.8889 53Z" fill="none" stroke-width="5.2" stroke-linecap="square"/>
	</symbol>

	<symbol xmlns="http://www.w3.org/2000/svg" id="user" viewBox="0 0 52 58">
		<path d="M23.1668 54.5H7.86683C6.28002 54.5 5.4866 54.5 4.88052 54.1912C4.3474 53.9195 3.91396 53.4862 3.6423 52.953C3.3335 52.3469 3.3335 51.5536 3.3335 49.9667V45.1049C3.3335 43.3041 3.3335 42.4034 3.46944 41.6525C4.10096 38.1641 6.83102 35.4342 10.3193 34.8027C10.5372 34.7633 10.7673 34.7352 11.0281 34.7154C11.6657 34.6667 11.9845 34.6423 12.4104 34.674C12.853 34.7072 13.1006 34.7508 13.5277 34.8712C13.9387 34.9871 14.679 35.3226 16.1595 35.9932C17.4705 36.5871 18.8703 37.0195 20.3335 37.2648M48.3059 38.0774C48.1126 38.089 47.918 38.095 47.7225 38.095C44.8197 38.095 42.172 36.7985 40.1668 34.6667C38.1617 36.7985 35.5139 38.0947 32.6112 38.0947C32.4157 38.0947 32.221 38.0888 32.0278 38.0771C31.7921 39.1583 31.6668 40.2922 31.6668 41.4607C31.6668 47.7343 35.2788 53.0054 40.1668 54.5C45.0549 53.0054 48.6668 47.7343 48.6668 41.4607C48.6668 40.2922 48.5416 39.1583 48.3059 38.0774ZM34.5002 14.8333C34.5002 21.0926 29.4259 26.1667 23.1668 26.1667C16.9076 26.1667 11.8335 21.0926 11.8335 14.8333C11.8335 8.5741 16.9076 3.5 23.1668 3.5C29.4259 3.5 34.5002 8.5741 34.5002 14.8333Z" fill="none" stroke-width="5.2" stroke-linecap="square"/>
	</symbol>

	<symbol xmlns="http://www.w3.org/2000/svg" id="arrow1" viewBox="0 0 8 14">
		<path d="M1.12093 13.9999C1.42563 13.9366 1.64593 13.7469 1.85923 13.5337C3.78873 11.6042 5.72143 9.67835 7.65453 7.75305C7.95883 7.45005 8.08644 7.09725 7.93934 6.68515C7.88644 6.53645 7.78793 6.39015 7.67553 6.27765C5.68953 4.28875 3.69843 2.30495 1.70743 0.321151C1.40543 0.0204511 1.04343 -0.0816486 0.639935 0.0685514C0.260835 0.209751 0.046034 0.499252 0.005934 0.902152C-0.026366 1.22805 0.104734 1.49545 0.333634 1.72285C0.806434 2.19205 1.27734 2.66305 1.74904 3.13345C3.00264 4.38345 4.25613 5.63345 5.51083 6.88255C5.54633 6.91785 5.58954 6.94475 5.65374 7.03555C5.60584 7.06275 5.54944 7.08135 5.51164 7.11895C3.78834 8.83505 2.06664 10.5526 0.343735 12.269C0.048735 12.5628 -0.0777659 12.9036 0.0502341 13.3122C0.151034 13.6342 0.368635 13.8465 0.691635 13.9497C0.743435 13.9664 0.795135 13.9832 0.846936 13.9999C0.938435 13.9999 1.02943 13.9999 1.12093 13.9999Z"/>
	</symbol>

	<symbol xmlns="http://www.w3.org/2000/svg" id="ic_menu1" viewBox="0 0 32 32">
		<path d="M16 21.3334H16.0133M16 14.6667V17.3334M18.6667 10.6667V6.66669M14.6667 6.66669H22.6667M8 16H4M4 12V20M28 14.6667V25.3334M8 10.6667V21.3334H10.6667L13.3333 25.3334H24V13.3334L21.3333 10.6667H8Z" stroke-width="2" stroke-linecap="square"/>
	</symbol>

	<symbol xmlns="http://www.w3.org/2000/svg" id="ic_menu2" viewBox="0 0 32 32">
		<path d="M10.666 6.66673C9.34822 6.66776 8.65747 6.68451 8.12204 6.95732C7.62027 7.21297 7.21232 7.62092 6.95667 8.12269C6.66602 8.69312 6.66602 9.43985 6.66602 10.9333V23.7333C6.66602 25.2268 6.66602 25.9736 6.95667 26.544C7.21232 27.0457 7.62027 27.4537 8.12204 27.7093C8.69247 28 9.4392 28 10.9327 28H21.066C22.5595 28 23.3063 28 23.8767 27.7093C24.3784 27.4537 24.7864 27.0457 25.042 26.544C25.3327 25.9736 25.3327 25.2268 25.3327 23.7333V10.9333C25.3327 9.43985 25.3327 8.69312 25.042 8.12269C24.7864 7.62092 24.3784 7.21297 23.8767 6.95732C23.3412 6.68451 22.6505 6.66776 21.3327 6.66673M10.666 6.66673V9.33333H21.3327V6.66673M10.666 6.66673V6.27615C10.666 5.67247 10.9058 5.09352 11.3327 4.66667C11.7595 4.23981 12.3385 4 12.9422 4H19.0565C19.6601 4 20.2392 4.23981 20.666 4.66667C21.0928 5.09352 21.3327 5.67247 21.3327 6.27615V6.66673M21.3327 14.6667H18.666M21.3327 21.3333H18.666M10.666 14.6667L11.9993 16L14.666 13.3333M10.666 21.3333L11.9993 22.6667L14.666 20" stroke-width="2" stroke-linecap="square"/>
	</symbol>

	<symbol xmlns="http://www.w3.org/2000/svg" id="ic_menu3" viewBox="0 0 32 32">
		<path d="M20.6667 11.3333L11.3333 20.6667M12.6667 12.6667H12.68M19.3333 19.3333H19.3467M28 16C28 22.6275 22.6275 28 16 28C9.37259 28 4 22.6275 4 16C4 9.37259 9.37259 4 16 4C22.6275 4 28 9.37259 28 16ZM13.3333 12.6667C13.3333 13.0349 13.0349 13.3333 12.6667 13.3333C12.2985 13.3333 12 13.0349 12 12.6667C12 12.2985 12.2985 12 12.6667 12C13.0349 12 13.3333 12.2985 13.3333 12.6667ZM20 19.3333C20 19.7015 19.7015 20 19.3333 20C18.9652 20 18.6667 19.7015 18.6667 19.3333C18.6667 18.9652 18.9652 18.6667 19.3333 18.6667C19.7015 18.6667 20 18.9652 20 19.3333Z" stroke-width="2" stroke-linecap="square"/>
	</symbol>

	<symbol xmlns="http://www.w3.org/2000/svg" id="ic_menu4" viewBox="0 0 32 32">
		<path d="M16 24H16.0133M14.6667 8H17.3333M12.2667 28H19.7333C21.2268 28 21.9736 28 22.544 27.7093C23.0457 27.4537 23.4537 27.0457 23.7093 26.544C24 25.9736 24 25.2268 24 23.7333V8.26667C24 6.7732 24 6.02645 23.7093 5.45603C23.4537 4.95425 23.0457 4.54631 22.544 4.29065C21.9736 4 21.2268 4 19.7333 4H12.2667C10.7732 4 10.0265 4 9.45603 4.29065C8.95425 4.54631 8.54631 4.95425 8.29065 5.45603C8 6.02645 8 6.77319 8 8.26667V23.7333C8 25.2268 8 25.9736 8.29065 26.544C8.54631 27.0457 8.95425 27.4537 9.45603 27.7093C10.0265 28 10.7732 28 12.2667 28Z" stroke-width="2" stroke-linecap="square"/>
	</symbol>

	<symbol xmlns="http://www.w3.org/2000/svg" id="ic_menu5" viewBox="0 0 26 6">
		<circle cx="13" cy="3" r="3" fill="#8C94A8"/>
		<circle cx="3" cy="3" r="3" fill="#8C94A8"/>
		<circle cx="23" cy="3" r="3" fill="#8C94A8"/>
	</symbol>
</svg>